<?xml version="1.0" encoding="UTF-8"?>
<svg version="1.1" xmlns="http://www.w3.org/2000/svg" width="1115" height="1115">
<path d="M0 0 C2.15881192 -0.00218282 4.31710822 -0.02039418 6.47583008 -0.03930664 C20.53714745 -0.09572246 34.1806822 1.77761543 47.48168945 6.40405273 C50.06541331 7.25256632 52.6655462 7.9415241 55.2980957 8.62280273 C70.24005577 12.64883086 83.58164979 20.44579875 96.8605957 28.18530273 C96.8605957 28.84530273 96.8605957 29.50530273 96.8605957 30.18530273 C97.59536133 30.28327148 98.33012695 30.38124023 99.0871582 30.48217773 C102.24062556 31.28164833 103.74894753 32.35873338 106.2355957 34.43530273 C107.09668945 35.15202148 107.9577832 35.86874023 108.8449707 36.60717773 C109.84012695 37.45795898 110.8352832 38.30874023 111.8605957 39.18530273 C112.45291992 39.68739258 113.04524414 40.18948242 113.65551758 40.70678711 C133.37023131 57.43503448 133.37023131 57.43503448 138.8605957 66.18530273 C140.18666562 68.00312358 141.52080516 69.81507064 142.8605957 71.62280273 C150.8605957 82.57802661 150.8605957 82.57802661 150.8605957 86.18530273 C151.5205957 86.18530273 152.1805957 86.18530273 152.8605957 86.18530273 C154.03725574 88.43056219 155.2020031 90.68074415 156.3605957 92.93530273 C156.69446289 93.56952148 157.02833008 94.20374023 157.37231445 94.85717773 C159.13235103 98.30541267 159.8605957 100.23370342 159.8605957 104.18530273 C160.5205957 104.18530273 161.1805957 104.18530273 161.8605957 104.18530273 C163.01593327 107.03593982 164.15999082 109.89029087 165.2980957 112.74780273 C165.78632812 113.94759766 165.78632812 113.94759766 166.28442383 115.17163086 C168.15068441 119.88538182 169.21682962 124.12892638 169.8605957 129.18530273 C170.17681885 129.79857422 170.49304199 130.4118457 170.81884766 131.04370117 C177.08831264 143.93232242 176.24760639 163.24501856 176.2980957 177.49780273 C176.3079248 178.74021729 176.31775391 179.98263184 176.32788086 181.26269531 C176.25562231 189.11426764 175.18401367 196.2367893 173.50634766 203.86132812 C172.97806282 206.58064683 172.70305835 208.88267973 172.7824707 211.63061523 C172.87099736 215.65857827 172.14064787 219.2017472 171.1105957 223.06030273 C170.92940186 223.75792725 170.74820801 224.45555176 170.56152344 225.17431641 C169.0806948 230.70868115 167.21544556 235.95911178 164.8605957 241.18530273 C164.32499023 242.41700195 164.32499023 242.41700195 163.77856445 243.67358398 C161.26343286 249.35155664 158.54991107 254.93168871 155.7980957 260.49780273 C155.46970703 261.16763184 155.14131836 261.83746094 154.80297852 262.52758789 C152.75470561 266.6312955 150.41997815 270.37099727 147.8605957 274.18530273 C147.5305957 275.17530273 147.2005957 276.16530273 146.8605957 277.18530273 C146.2005957 277.18530273 145.5405957 277.18530273 144.8605957 277.18530273 C144.4893457 277.98967773 144.4893457 277.98967773 144.1105957 278.81030273 C140.64874748 285.38781437 136.18819521 290.05894456 130.8605957 295.18530273 C128.23492306 297.73858841 125.90788506 300.11436871 123.8605957 303.18530273 C123.2005957 303.18530273 122.5405957 303.18530273 121.8605957 303.18530273 C121.8605957 303.84530273 121.8605957 304.50530273 121.8605957 305.18530273 C121.2005957 305.18530273 120.5405957 305.18530273 119.8605957 305.18530273 C119.8605957 305.84530273 119.8605957 306.50530273 119.8605957 307.18530273 C118.3996582 308.69311523 118.3996582 308.69311523 116.4855957 310.31030273 C115.85911133 310.84913086 115.23262695 311.38795898 114.5871582 311.94311523 C112.8605957 313.18530273 112.8605957 313.18530273 110.8605957 313.18530273 C110.8605957 313.84530273 110.8605957 314.50530273 110.8605957 315.18530273 C110.2005957 315.18530273 109.5405957 315.18530273 108.8605957 315.18530273 C108.8605957 315.84530273 108.8605957 316.50530273 108.8605957 317.18530273 C107.8705957 317.18530273 106.8805957 317.18530273 105.8605957 317.18530273 C105.8605957 317.84530273 105.8605957 318.50530273 105.8605957 319.18530273 C105.2624707 319.45342773 104.6643457 319.72155273 104.0480957 319.99780273 C101.8559689 321.04369632 101.8559689 321.04369632 100.4855957 322.62280273 C98.23791854 324.78403078 95.65260628 325.78929744 92.8605957 327.18530273 C90.517321 328.74748587 88.20785397 330.34812977 85.91137695 331.97827148 C83.8605957 333.18530273 83.8605957 333.18530273 80.8605957 333.18530273 C80.5305957 333.84530273 80.2005957 334.50530273 79.8605957 335.18530273 C75.09998726 337.75102012 69.98788572 339.51108559 64.8605957 341.18530273 C63.21317219 341.86898349 61.56748718 342.55686114 59.9230957 343.24780273 C55.87812362 344.89732658 52.19580575 345.60171677 47.8605957 346.18530273 C46.8705957 346.70092773 45.8805957 347.21655273 44.8605957 347.74780273 C41.29388193 349.45685308 38.77100713 349.25771776 34.8605957 349.18530273 C34.0252832 349.66483398 34.0252832 349.66483398 33.1730957 350.15405273 C29.13577933 351.9544776 24.6023504 351.58421606 20.2355957 351.66381836 C15.29057535 351.84292245 12.32923076 352.94496279 7.8605957 355.18530273 C4.4230957 355.32983398 4.4230957 355.32983398 0.8605957 354.99780273 C-0.3150293 354.90112305 -1.4906543 354.80444336 -2.7019043 354.70483398 C-6.05207203 354.19850181 -8.94860606 353.29724758 -12.1394043 352.18530273 C-14.80641925 351.71255427 -17.44124006 351.46442317 -20.1394043 351.18530273 C-20.1394043 350.52530273 -20.1394043 349.86530273 -20.1394043 349.18530273 C-20.9644043 349.23170898 -21.7894043 349.27811523 -22.6394043 349.32592773 C-35.10432525 349.71545651 -46.29877648 347.12130205 -57.76831055 342.18920898 C-61.286597 340.69958853 -64.89235503 339.47057591 -68.4987793 338.21264648 C-78.46652262 334.3346635 -87.90490202 328.55419941 -97.1394043 323.18530273 C-97.1394043 322.52530273 -97.1394043 321.86530273 -97.1394043 321.18530273 C-97.9025293 320.89655273 -98.6656543 320.60780273 -99.4519043 320.31030273 C-102.1394043 319.18530273 -102.1394043 319.18530273 -105.1394043 317.18530273 C-105.1394043 316.52530273 -105.1394043 315.86530273 -105.1394043 315.18530273 C-105.8200293 314.99967773 -106.5006543 314.81405273 -107.2019043 314.62280273 C-111.34518289 312.59524087 -114.00878971 309.51789246 -117.1394043 306.18530273 C-119.52570583 303.7421845 -121.79975785 301.4445066 -124.5144043 299.37280273 C-128.12880631 296.36080106 -131.31157915 292.95030336 -134.1394043 289.18530273 C-134.1394043 288.52530273 -134.1394043 287.86530273 -134.1394043 287.18530273 C-134.7994043 287.18530273 -135.4594043 287.18530273 -136.1394043 287.18530273 C-137.53652704 285.2293309 -138.85868059 283.21939333 -140.1394043 281.18530273 C-140.8819043 280.11280273 -141.6244043 279.04030273 -142.3894043 277.93530273 C-144.1394043 275.18530273 -144.1394043 275.18530273 -144.1394043 273.18530273 C-145.1294043 272.85530273 -146.1194043 272.52530273 -147.1394043 272.18530273 C-155.28600604 260.22782567 -160.33194227 245.76284805 -165.1394043 232.18530273 C-165.5106543 231.16307617 -165.8819043 230.14084961 -166.2644043 229.08764648 C-167.3692366 225.81199134 -168.28084763 222.53438327 -169.1394043 219.18530273 C-169.32277344 218.49436523 -169.50614258 217.80342773 -169.69506836 217.09155273 C-176.69652105 189.41745206 -176.43570906 155.47885825 -168.1394043 128.18530273 C-167.94185547 127.4838916 -167.74430664 126.78248047 -167.54077148 126.05981445 C-163.76550978 112.68339064 -157.99901166 99.11363064 -150.51831055 87.37280273 C-148.58401593 84.30423338 -146.90861876 81.10757949 -145.2175293 77.90014648 C-144.1394043 76.18530273 -144.1394043 76.18530273 -142.1394043 75.18530273 C-141.14923977 73.50202304 -140.16354748 71.81565833 -139.2175293 70.10717773 C-137.66254576 67.33525056 -136.01778324 64.75242063 -134.1394043 62.18530273 C-133.4794043 62.18530273 -132.8194043 62.18530273 -132.1394043 62.18530273 C-131.4794043 60.86530273 -130.8194043 59.54530273 -130.1394043 58.18530273 C-129.4794043 58.18530273 -128.8194043 58.18530273 -128.1394043 58.18530273 C-127.8712793 57.54592773 -127.6031543 56.90655273 -127.3269043 56.24780273 C-126.1394043 54.18530273 -126.1394043 54.18530273 -123.1394043 53.18530273 C-122.45401081 51.86149837 -121.78927922 50.52690059 -121.1394043 49.18530273 C-119.4831543 47.58764648 -119.4831543 47.58764648 -117.6394043 46.12280273 C-115.20275518 44.17658088 -113.91678308 42.85137092 -112.1394043 40.18530273 C-110.50875666 39.12758535 -108.83659556 38.13257228 -107.1394043 37.18530273 C-103.5995066 35.17304821 -103.5995066 35.17304821 -100.5144043 32.56030273 C-99.1394043 31.18530273 -99.1394043 31.18530273 -96.1394043 30.18530273 C-95.4794043 29.50467773 -94.8194043 28.82405273 -94.1394043 28.12280273 C-92.1394043 26.18530273 -92.1394043 26.18530273 -89.1394043 26.18530273 C-89.1394043 25.52530273 -89.1394043 24.86530273 -89.1394043 24.18530273 C-87.57821008 23.39106412 -86.01538466 22.6000315 -84.4519043 21.81030273 C-83.58178711 21.36944336 -82.71166992 20.92858398 -81.81518555 20.47436523 C-74.98788915 17.18530273 -74.98788915 17.18530273 -71.1394043 17.18530273 C-71.1394043 16.52530273 -71.1394043 15.86530273 -71.1394043 15.18530273 C-69.87100904 14.67914976 -68.59957328 14.18061174 -67.3269043 13.68530273 C-66.61920898 13.40686523 -65.91151367 13.12842773 -65.18237305 12.84155273 C-63.1394043 12.18530273 -63.1394043 12.18530273 -60.1394043 12.18530273 C-60.1394043 11.52530273 -60.1394043 10.86530273 -60.1394043 10.18530273 C-50.72938152 7.88917517 -50.72938152 7.88917517 -46.1394043 8.18530273 C-46.1394043 7.52530273 -46.1394043 6.86530273 -46.1394043 6.18530273 C-40.81434056 4.13146789 -35.93175831 3.80147812 -30.26635742 3.61889648 C-28.55307321 3.54032114 -26.84448099 3.37031722 -25.1394043 3.18530273 C-24.8094043 2.52530273 -24.4794043 1.86530273 -24.1394043 1.18530273 C-16.43800331 -0.64805032 -7.89033658 -0.00088985 0 0 Z M13.36450195 40.56030273 C6.81653975 41.24248663 0.3753147 41.26393058 -6.2019043 41.18530273 C-8.40107426 41.15983464 -10.60030121 41.13878766 -12.79956055 41.12280273 C-13.75483643 41.11120117 -14.7101123 41.09959961 -15.69433594 41.08764648 C-18.27912322 41.07736708 -18.27912322 41.07736708 -21.1394043 42.18530273 C-23.46621812 47.53697452 -23.03566549 51.83668972 -22.3659668 57.55249023 C-22.07873336 60.89034084 -22.59006079 63.88924172 -23.1394043 67.18530273 C-23.33033978 71.19494781 -23.36279688 75.02113271 -22.60449219 78.97290039 C-22.14371597 82.15552161 -22.2340151 84.70400677 -22.56518555 87.89233398 C-23.41872732 98.34512811 -23.32542995 108.81180543 -23.32470703 119.29345703 C-23.32692265 122.90270291 -23.34521706 126.51165643 -23.36401367 130.12084961 C-23.36694297 132.41707253 -23.36893086 134.71329689 -23.36987305 137.00952148 C-23.37705856 138.08755539 -23.38424408 139.16558929 -23.39164734 140.27629089 C-23.38857071 141.27195572 -23.38549408 142.26762054 -23.38232422 143.29345703 C-23.38374924 144.16834274 -23.38517426 145.04322845 -23.38664246 145.94462585 C-23.28190558 148.46999104 -23.28190558 148.46999104 -21.1394043 151.18530273 C-19.22251632 151.6280989 -19.22251632 151.6280989 -16.99682617 151.54174805 C-15.71539734 151.54624969 -15.71539734 151.54624969 -14.40808105 151.55084229 C-13.48410522 151.53849548 -12.56012939 151.52614868 -11.6081543 151.51342773 C-10.66129761 151.51155457 -9.71444092 151.5096814 -8.7388916 151.50775146 C-6.73482753 151.50102198 -4.73077678 151.48708982 -2.72680664 151.46655273 C0.34802394 151.43542998 3.42234207 151.42558641 6.49731445 151.41967773 C8.44133115 151.41050671 10.3853426 151.40013062 12.3293457 151.38842773 C13.71530945 151.38205292 13.71530945 151.38205292 15.12927246 151.37554932 C16.41070129 151.361138 16.41070129 151.361138 17.71801758 151.34643555 C18.47143433 151.33960754 19.22485107 151.33277954 20.00109863 151.32574463 C21.95422835 151.29622896 21.95422835 151.29622896 23.8605957 150.18530273 C23.8605957 114.54530273 23.8605957 78.90530273 23.8605957 42.18530273 C19.14404031 40.29868058 18.0262697 39.98363874 13.36450195 40.56030273 Z M49.8605957 67.18530273 C47.43918797 69.16420596 47.43918797 69.16420596 47.63354492 72.99243164 C47.63386224 74.63227693 47.64519889 76.27214291 47.6652832 77.91186523 C47.6681131 78.77468109 47.67094299 79.63749695 47.67385864 80.52645874 C47.68507238 83.28787993 47.71017887 86.04897923 47.7355957 88.81030273 C47.74562397 90.68008972 47.75475009 92.54988179 47.76293945 94.41967773 C47.78501558 99.00834382 47.81955336 103.59676867 47.8605957 108.18530273 C48.4702417 108.46792969 49.0798877 108.75055664 49.70800781 109.04174805 C52.66003814 110.61000369 54.56797091 112.76317089 56.8605957 115.18530273 C57.67399414 116.03608398 58.48739258 116.88686523 59.32543945 117.76342773 C66.97376109 126.02796486 72.39543403 133.63769828 76.7355957 143.99780273 C77.20195435 145.11082764 77.20195435 145.11082764 77.67773438 146.24633789 C77.96237549 146.9545166 78.2470166 147.66269531 78.5402832 148.39233398 C78.92289307 149.34329956 78.92289307 149.34329956 79.31323242 150.31347656 C79.8605957 152.18530273 79.8605957 152.18530273 79.8605957 156.18530273 C80.5205957 156.18530273 81.1805957 156.18530273 81.8605957 156.18530273 C83.46972355 173.22481727 83.57066282 188.37048374 77.6652832 204.55639648 C76.66547053 207.36455752 76.66547053 207.36455752 76.8605957 211.18530273 C76.2005957 211.18530273 75.5405957 211.18530273 74.8605957 211.18530273 C74.44100586 212.11149414 74.44100586 212.11149414 74.01293945 213.05639648 C70.97996576 219.46367532 67.3999689 224.76163606 62.8605957 230.18530273 C62.32692383 230.87624023 61.79325195 231.56717773 61.2434082 232.27905273 C57.16581381 237.3516582 52.64315402 240.48611017 47.02075195 243.73999023 C45.95147461 244.45541992 45.95147461 244.45541992 44.8605957 245.18530273 C44.8605957 245.84530273 44.8605957 246.50530273 44.8605957 247.18530273 C44.3449707 247.28842773 43.8293457 247.39155273 43.2980957 247.49780273 C40.00033136 248.4279414 36.99426239 249.79925786 33.8605957 251.18530273 C33.8605957 251.84530273 33.8605957 252.50530273 33.8605957 253.18530273 C32.0043457 253.37092773 32.0043457 253.37092773 30.1105957 253.56030273 C24.32105971 254.1974287 18.59683274 255.1855863 12.8605957 256.18530273 C12.8605957 257.17530273 12.8605957 258.16530273 12.8605957 259.18530273 C12.0871582 259.11311523 11.3137207 259.04092773 10.5168457 258.96655273 C0.4787324 257.45805765 0.4787324 257.45805765 -9.1394043 259.18530273 C-9.1394043 258.19530273 -9.1394043 257.20530273 -9.1394043 256.18530273 C-10.97051758 256.09055664 -10.97051758 256.09055664 -12.83862305 255.99389648 C-24.33030392 255.21008032 -34.62037154 253.71684803 -43.17456055 245.14624023 C-45.32513361 242.99994267 -47.52800095 241.72330716 -50.1394043 240.18530273 C-51.7557692 238.89221081 -53.34000638 237.5579237 -54.8894043 236.18530273 C-55.66799805 235.50467773 -56.4465918 234.82405273 -57.2487793 234.12280273 C-59.1394043 232.18530273 -59.1394043 232.18530273 -60.1394043 229.18530273 C-61.1294043 229.18530273 -62.1194043 229.18530273 -63.1394043 229.18530273 C-63.1394043 228.52530273 -63.1394043 227.86530273 -63.1394043 227.18530273 C-63.7994043 227.18530273 -64.4594043 227.18530273 -65.1394043 227.18530273 C-65.3456543 226.40155273 -65.5519043 225.61780273 -65.7644043 224.81030273 C-66.95910107 221.66064761 -68.24488681 219.2683181 -70.0144043 216.43530273 C-77.91369716 203.56523534 -79.58384199 190.98641196 -79.5769043 176.06030273 C-79.57763947 175.37243683 -79.57837463 174.68457092 -79.57913208 173.9758606 C-79.54877149 163.16670449 -78.68220462 154.0759566 -74.1394043 144.18530273 C-73.61991211 142.97358398 -73.10041992 141.76186523 -72.56518555 140.51342773 C-67.64526611 129.55224387 -60.31079401 121.20082603 -51.7956543 112.88842773 C-46.2521777 107.18806029 -44.88009811 100.56135089 -44.9440918 92.81811523 C-44.94833664 91.79873367 -44.94833664 91.79873367 -44.95266724 90.75875854 C-44.96377465 88.60908666 -44.98886039 86.4598466 -45.0144043 84.31030273 C-45.02444635 82.84416296 -45.03357005 81.37801659 -45.04174805 79.91186523 C-45.0636827 76.33620642 -45.09814615 72.7607968 -45.1394043 69.18530273 C-50.0024538 67.98608134 -52.82842072 68.79223169 -57.1394043 71.18530273 C-59.4222275 72.62080777 -61.65295882 74.11268723 -63.8737793 75.64233398 C-65.98888336 77.08279279 -68.13786875 78.42351978 -70.3269043 79.74780273 C-73.89323179 81.96335689 -77.05417559 84.33146618 -80.1394043 87.18530273 C-80.1394043 87.84530273 -80.1394043 88.50530273 -80.1394043 89.18530273 C-80.72206055 89.43280273 -81.3047168 89.68030273 -81.9050293 89.93530273 C-84.47054665 91.3705572 -85.97665227 92.96193286 -87.8894043 95.18530273 C-88.50299805 95.88655273 -89.1165918 96.58780273 -89.7487793 97.31030273 C-91.33797352 99.06396844 -91.33797352 99.06396844 -91.1394043 101.18530273 C-92.1294043 101.18530273 -93.1194043 101.18530273 -94.1394043 101.18530273 C-97.12855087 104.80024657 -97.12855087 104.80024657 -98.1394043 109.18530273 C-98.7994043 109.18530273 -99.4594043 109.18530273 -100.1394043 109.18530273 C-100.56092773 110.03995117 -100.98245117 110.89459961 -101.41674805 111.77514648 C-101.96459961 112.87987305 -102.51245117 113.98459961 -103.0769043 115.12280273 C-103.62217773 116.22495117 -104.16745117 117.32709961 -104.72924805 118.46264648 C-106.1394043 121.18530273 -106.1394043 121.18530273 -107.1394043 122.18530273 C-107.18004262 123.85147389 -107.1821253 125.51918368 -107.1394043 127.18530273 C-107.7994043 127.18530273 -108.4594043 127.18530273 -109.1394043 127.18530273 C-112.03901889 133.74028254 -114.09945375 140.33265865 -115.83178711 147.26953125 C-117.04635158 152.09225001 -117.04635158 152.09225001 -118.1394043 153.18530273 C-118.31104966 155.22572279 -118.41482209 157.27190456 -118.4909668 159.31811523 C-118.53842041 160.59259521 -118.58587402 161.8670752 -118.63476562 163.18017578 C-118.67905263 164.55685063 -118.72224618 165.93356105 -118.7644043 167.31030273 C-118.78586517 167.99758453 -118.80732605 168.68486633 -118.82943726 169.39297485 C-119.65618154 188.4327053 -119.65618154 188.4327053 -115.11987305 206.75170898 C-114.20705089 209.01739903 -113.56726662 211.18520622 -113.0144043 213.56030273 C-111.65199064 219.2045879 -109.22530494 224.19559161 -106.6394043 229.37280273 C-106.17727539 230.31542969 -106.17727539 230.31542969 -105.70581055 231.27709961 C-104.3814282 233.93439037 -103.25335366 236.07135337 -101.1394043 238.18530273 C-100.8919043 238.90717773 -100.6444043 239.62905273 -100.3894043 240.37280273 C-98.93105366 243.65409168 -96.99605465 245.82047873 -94.5769043 248.43920898 C-93.0751866 250.26330629 -92.17505428 252.07120731 -91.1394043 254.18530273 C-88.33289609 257.23944402 -85.28403756 259.92909801 -82.1394043 262.62280273 C-79.59083075 264.80729434 -77.42636169 266.95715479 -75.3894043 269.62280273 C-74.6469043 270.46842773 -73.9044043 271.31405273 -73.1394043 272.18530273 C-71.8194043 272.18530273 -70.4994043 272.18530273 -69.1394043 272.18530273 C-69.1394043 272.84530273 -69.1394043 273.50530273 -69.1394043 274.18530273 C-65.42059375 277.62573782 -61.22220729 279.86210685 -56.7019043 282.06030273 C-55.99670654 282.40472412 -55.29150879 282.74914551 -54.56494141 283.10400391 C-53.11795994 283.8050048 -51.66881874 284.50156554 -50.2175293 285.19360352 C-48.33131468 286.09372144 -46.4535888 287.01157415 -44.5769043 287.93139648 C-25.67382439 296.70470093 4.79098917 300.87517158 24.8605957 294.18530273 C24.8605957 293.52530273 24.8605957 292.86530273 24.8605957 292.18530273 C25.80161133 292.13631836 26.74262695 292.08733398 27.7121582 292.03686523 C29.58000977 291.9247168 29.58000977 291.9247168 31.4855957 291.81030273 C33.33024414 291.70588867 33.33024414 291.70588867 35.2121582 291.59936523 C38.69713425 291.20385403 41.59109171 290.42268425 44.8605957 289.18530273 C44.8605957 288.52530273 44.8605957 287.86530273 44.8605957 287.18530273 C45.9330957 287.06155273 47.0055957 286.93780273 48.1105957 286.81030273 C51.23923186 286.28886338 53.19539994 285.78442019 55.8605957 284.18530273 C55.8605957 283.52530273 55.8605957 282.86530273 55.8605957 282.18530273 C57.5105957 281.85530273 59.1605957 281.52530273 60.8605957 281.18530273 C60.8605957 280.52530273 60.8605957 279.86530273 60.8605957 279.18530273 C62.1805957 279.18530273 63.5005957 279.18530273 64.8605957 279.18530273 C64.8605957 278.52530273 64.8605957 277.86530273 64.8605957 277.18530273 C65.8505957 277.18530273 66.8405957 277.18530273 67.8605957 277.18530273 C67.8605957 276.52530273 67.8605957 275.86530273 67.8605957 275.18530273 C68.7887207 274.93780273 69.7168457 274.69030273 70.6730957 274.43530273 C74.17051619 273.06376529 74.78912247 272.15741651 76.8605957 269.18530273 C78.52383971 268.17962031 80.18995823 267.17865474 81.8605957 266.18530273 C81.8605957 265.52530273 81.8605957 264.86530273 81.8605957 264.18530273 C82.8505957 263.85530273 83.8405957 263.52530273 84.8605957 263.18530273 C84.8605957 262.52530273 84.8605957 261.86530273 84.8605957 261.18530273 C85.5205957 261.18530273 86.1805957 261.18530273 86.8605957 261.18530273 C86.8605957 260.52530273 86.8605957 259.86530273 86.8605957 259.18530273 C87.8505957 258.85530273 88.8405957 258.52530273 89.8605957 258.18530273 C93.50072637 254.70594801 93.50072637 254.70594801 94.8605957 250.18530273 C95.8505957 249.85530273 96.8405957 249.52530273 97.8605957 249.18530273 C97.8605957 248.19530273 97.8605957 247.20530273 97.8605957 246.18530273 C98.5205957 246.18530273 99.1805957 246.18530273 99.8605957 246.18530273 C104.72377118 240.66609772 107.27720136 234.05145571 109.68481445 227.20092773 C110.8605957 224.18530273 110.8605957 224.18530273 112.3762207 221.73217773 C114.18134159 218.63497032 115.00208303 215.64562564 115.9230957 212.18530273 C117.69596438 205.57798493 117.69596438 205.57798493 118.85180664 202.82104492 C122.09948612 194.33557841 122.21882453 184.91292683 122.1730957 175.93530273 C122.17108154 174.85498779 122.16906738 173.77467285 122.16699219 172.66162109 C122.05680001 163.80467723 121.90580149 153.2757143 117.8605957 145.18530273 C117.2005957 145.18530273 116.5405957 145.18530273 115.8605957 145.18530273 C115.80452148 144.22430664 115.80452148 144.22430664 115.74731445 143.24389648 C115.3199429 137.62102761 114.37395029 133.30867939 111.8605957 128.18530273 C111.33493217 126.91645973 110.81403613 125.64563038 110.2980957 124.37280273 C109.07888183 121.16766079 109.07888183 121.16766079 106.8605957 119.18530273 C106.2355957 117.06030273 106.2355957 117.06030273 105.8605957 115.18530273 C105.2005957 115.18530273 104.5405957 115.18530273 103.8605957 115.18530273 C103.7780957 114.64905273 103.6955957 114.11280273 103.6105957 113.56030273 C102.21459091 109.13962089 99.54360787 105.8683149 96.2980957 102.62280273 C93.95528323 100.27999027 92.55097533 98.00260211 90.8605957 95.18530273 C90.2005957 95.18530273 89.5405957 95.18530273 88.8605957 95.18530273 C88.5202832 94.34999023 88.5202832 94.34999023 88.1730957 93.49780273 C85.90459122 89.50091387 83.24159624 86.64563625 78.8605957 85.18530273 C77.6540332 83.94780273 77.6540332 83.94780273 76.4230957 82.68530273 C74.02364094 80.34437126 73.08925457 79.54404261 69.8605957 79.18530273 C69.8605957 78.52530273 69.8605957 77.86530273 69.8605957 77.18530273 C69.2005957 77.18530273 68.5405957 77.18530273 67.8605957 77.18530273 C67.8605957 76.52530273 67.8605957 75.86530273 67.8605957 75.18530273 C64.90682072 72.8155026 64.90682072 72.8155026 60.8605957 73.18530273 C60.5305957 72.19530273 60.2005957 71.20530273 59.8605957 70.18530273 C56.367136 68.43857288 53.79214003 67.18530273 49.8605957 67.18530273 Z " fill="#2C2C2C" transform="translate(261.139404296875,241.814697265625)"/>
<path d="M0 0 C1.17369141 -0.02513672 1.17369141 -0.02513672 2.37109375 -0.05078125 C5.08873569 0.39973693 5.91608109 1.13741447 7.5625 3.3125 C8.2638284 5.63565031 8.92735174 7.97039079 9.5625 10.3125 C10.09875 11.385 10.635 12.4575 11.1875 13.5625 C12.5625 16.3125 12.5625 16.3125 12.5625 19.3125 C13.63731524 19.29403317 13.63731524 19.29403317 14.73384392 19.27519327 C59.05189021 18.52030127 103.35544614 18.16747897 147.67960411 18.20896223 C155.81903531 18.21636468 163.958465 18.21763379 172.09789909 18.21875793 C186.59521698 18.22090889 201.09252901 18.22745714 215.58984375 18.23706055 C229.61360649 18.24634018 243.6373676 18.25336826 257.66113281 18.25756836 C258.53585385 18.25783108 259.41057488 18.25809381 260.31180261 18.25836449 C264.7030955 18.25967019 269.09438839 18.26093374 273.4856813 18.26217639 C309.51129169 18.2724248 345.53689529 18.28992983 381.5625 18.3125 C381.54509766 17.63195557 381.52769531 16.95141113 381.50976562 16.25024414 C381.48946289 14.90627563 381.48946289 14.90627563 381.46875 13.53515625 C381.45134766 12.64836182 381.43394531 11.76156738 381.41601562 10.84790039 C381.64216584 6.9336171 382.77886328 5.0265458 385.5625 2.3125 C388.31675011 1.2175727 390.62553963 0.85322225 393.5625 1.3125 C397.06343217 4.3527832 398.5362075 7.83413271 399.5625 12.3125 C399.1875 15.1875 399.1875 15.1875 398.5625 17.3125 C400.5425 17.6425 402.5225 17.9725 404.5625 18.3125 C404.830625 17.301875 405.09875 16.29125 405.375 15.25 C406.4560156 11.43922558 407.94112338 7.92374792 409.5625 4.3125 C410.2225 4.3125 410.8825 4.3125 411.5625 4.3125 C411.8925 3.3225 412.2225 2.3325 412.5625 1.3125 C415.25 0.5 415.25 0.5 418.5625 0.3125 C421.375 2 421.375 2 423.5625 5.3125 C424.0181288 8.45592071 424.18740774 11.49251795 424.2265625 14.66796875 C424.33742188 15.54066406 424.44828125 16.41335938 424.5625 17.3125 C425.5525 17.9725 426.5425 18.6325 427.5625 19.3125 C427.5625 19.9725 427.5625 20.6325 427.5625 21.3125 C428.44309082 21.14878906 429.32368164 20.98507812 430.23095703 20.81640625 C436.07888306 19.98790288 441.97482042 20.21021879 447.8671875 20.25 C449.85868337 20.25656066 451.8501793 20.26311122 453.84167671 20.26918507 C455.9401962 20.27622381 458.03869777 20.28542192 460.13720703 20.29501343 C467.29716687 20.32617525 474.4571685 20.33040518 481.6171875 20.33203125 C482.31824364 20.33221567 483.01929977 20.33240009 483.74160004 20.3325901 C494.34520783 20.33323346 504.94763321 20.31861673 515.54840088 20.05004883 C517.50195216 20.00150457 519.45582205 19.96635803 521.40966797 19.93164062 C527.58840603 19.74010584 532.07089823 19.16266291 537.5625 16.3125 C539.11819408 15.8116778 540.67995093 15.32882029 542.25 14.875 C545.2687866 13.91794792 546.42786979 13.45108992 548.6875 11.125 C550.5625 9.3125 550.5625 9.3125 554.1875 8.875 C555.858125 9.0915625 555.858125 9.0915625 557.5625 9.3125 C560.04347921 13.03396881 559.82138566 14.95192595 559.8371582 19.3984375 C559.84226913 20.11582092 559.84738007 20.83320435 559.85264587 21.57232666 C559.86654851 23.94413591 559.86558484 26.31565485 559.86328125 28.6875 C559.86716742 30.3351248 559.87150193 31.9827486 559.87626648 33.63037109 C559.88372983 37.0836919 559.88343631 40.53691046 559.87817383 43.99023438 C559.87237476 48.41909736 559.88931996 52.84754276 559.9125185 57.27633667 C559.9272372 60.67865451 559.92813018 64.0808713 559.92500877 67.48321533 C559.92552279 69.11632109 559.93077551 70.74943238 559.94082069 72.38250732 C559.95313397 74.6641368 559.94642528 76.94494652 559.93481445 79.2265625 C559.93544388 80.5254541 559.9360733 81.8243457 559.9367218 83.16259766 C559.5625 86.3125 559.5625 86.3125 558.18986511 88.24853516 C555.8324305 89.78981654 554.2515152 89.43531207 551.5 89.0625 C550.62214844 88.95421875 549.74429688 88.8459375 548.83984375 88.734375 C546.5625 88.3125 546.5625 88.3125 544.5625 87.3125 C544.5625 86.6525 544.5625 85.9925 544.5625 85.3125 C543.9025 85.3125 543.2425 85.3125 542.5625 85.3125 C542.53930183 93.04916719 542.52154682 100.78583076 542.51068783 108.52252483 C542.50547535 112.11520811 542.49840743 115.70786755 542.48706055 119.30053711 C542.47617351 122.76942491 542.47021084 126.23828981 542.46762276 129.70719337 C542.46488336 131.67082602 542.45708056 133.63444948 542.44920349 135.59806824 C542.44912796 136.7989357 542.44905243 137.99980316 542.44897461 139.23706055 C542.44564369 140.81924629 542.44564369 140.81924629 542.44224548 142.43339539 C542.55670363 145.17372461 542.96949291 147.64094411 543.5625 150.3125 C543.72513734 153.01036649 543.65282235 155.60282946 543.5625 158.3125 C543.2325 158.6425 542.9025 158.9725 542.5625 159.3125 C542.41576064 163.20109301 542.5534975 166.56477643 543.5625 170.3125 C543.2325 170.6425 542.9025 170.9725 542.5625 171.3125 C542.49938421 173.19297359 542.50322678 175.0757697 542.53515625 176.95703125 C542.54740234 178.10880859 542.55964844 179.26058594 542.57226562 180.44726562 C542.60725473 182.8874316 542.64627825 185.32754326 542.68945312 187.76757812 C542.70588867 189.50104492 542.70588867 189.50104492 542.72265625 191.26953125 C542.73949463 192.33147705 542.75633301 193.39342285 542.77368164 194.48754883 C542.43595225 199.00531384 540.74178149 201.26568857 537.5625 204.3125 C536.9025 205.3025 536.2425 206.2925 535.5625 207.3125 C534.9025 207.3125 534.2425 207.3125 533.5625 207.3125 C533.5625 207.9725 533.5625 208.6325 533.5625 209.3125 C531.57230253 210.33186943 529.5697458 211.32712479 527.5625 212.3125 C526.63824219 212.83457031 525.71398437 213.35664062 524.76171875 213.89453125 C518.85121621 216.4008094 512.23274996 215.74359629 505.9375 215.6875 C504.6278125 215.69910156 503.318125 215.71070313 501.96875 215.72265625 C500.07769531 215.71685547 500.07769531 215.71685547 498.1484375 215.7109375 C497.0042334 215.70755371 495.8600293 215.70416992 494.68115234 215.70068359 C491.237442 215.27203952 489.30500688 214.41378479 486.5625 212.3125 C486.5625 211.6525 486.5625 210.9925 486.5625 210.3125 C485.386875 210.1578125 485.386875 210.1578125 484.1875 210 C481.5625 209.3125 481.5625 209.3125 479.5625 206.3125 C479.9375 204.125 479.9375 204.125 480.5625 202.3125 C479.5725 201.9825 478.5825 201.6525 477.5625 201.3125 C477.2325 198.6725 476.9025 196.0325 476.5625 193.3125 C477.2225 193.3125 477.8825 193.3125 478.5625 193.3125 C478.2325 192.3225 477.9025 191.3325 477.5625 190.3125 C477.8925 189.3225 478.2225 188.3325 478.5625 187.3125 C479.2225 187.3125 479.8825 187.3125 480.5625 187.3125 C480.624375 186.2915625 480.624375 186.2915625 480.6875 185.25 C482.60178815 178.82346123 487.77198998 174.63013643 493.4375 171.37890625 C500.71708407 167.72573263 507.40672045 166.55517761 515.5625 167.3125 C515.8925 167.6425 516.2225 167.9725 516.5625 168.3125 C518.22867115 168.35313832 519.89638095 168.355221 521.5625 168.3125 C523.21119666 165.34484602 524.12984434 162.68721415 524.5625 159.3125 C524.2325 158.3225 523.9025 157.3325 523.5625 156.3125 C523.8925 155.3225 524.2225 154.3325 524.5625 153.3125 C524.418125 152.4875 524.27375 151.6625 524.125 150.8125 C522.13803957 138.44919065 522.13803957 138.44919065 525.5625 133.3125 C524.9025 132.9825 524.2425 132.6525 523.5625 132.3125 C523.4375 124.6875 523.4375 124.6875 524.5625 121.3125 C524.2325 119.3325 523.9025 117.3525 523.5625 115.3125 C523.5625 110.0325 523.5625 104.7525 523.5625 99.3125 C507.3925 99.3125 491.2225 99.3125 474.5625 99.3125 C473.63368673 105.3962246 473.63368673 105.3962246 473.99389648 111.06176758 C474.88320999 119.46371464 474.68574343 127.8859443 474.66015625 136.32421875 C474.65828769 138.146957 474.65686586 139.96969576 474.65586853 141.79243469 C474.65207784 146.55493595 474.64227759 151.31740597 474.63116455 156.07989502 C474.62087571 160.95364968 474.616355 165.82740945 474.61132812 170.70117188 C474.60065173 180.23829486 474.58361748 189.77539482 474.5625 199.3125 C473.9025 199.3125 473.2425 199.3125 472.5625 199.3125 C472.376875 200.01375 472.19125 200.715 472 201.4375 C470.05077039 205.33595922 467.21456981 207.94556834 463.5625 210.3125 C462.5725 210.3125 461.5825 210.3125 460.5625 210.3125 C460.5625 210.9725 460.5625 211.6325 460.5625 212.3125 C455.46570979 214.81573577 451.32731488 215.76105477 445.6171875 215.7109375 C444.51783371 215.71524277 444.51783371 215.71524277 443.39627075 215.71963501 C441.85841085 215.72166323 440.32052441 215.71622093 438.78271484 215.70361328 C436.43658719 215.68749373 434.0921697 215.70352663 431.74609375 215.72265625 C430.24478789 215.7206745 428.74348309 215.71683223 427.2421875 215.7109375 C426.54624481 215.71701019 425.85030212 215.72308289 425.13327026 215.7293396 C420.80824435 215.66715713 417.97899017 215.01876983 414.5625 212.3125 C414.5625 211.6525 414.5625 210.9925 414.5625 210.3125 C413.5725 209.9825 412.5825 209.6525 411.5625 209.3125 C411.5625 208.6525 411.5625 207.9925 411.5625 207.3125 C410.5725 206.9825 409.5825 206.6525 408.5625 206.3125 C408.5625 204.6625 408.5625 203.0125 408.5625 201.3125 C407.9025 201.3125 407.2425 201.3125 406.5625 201.3125 C406.5625 200.6525 406.5625 199.9925 406.5625 199.3125 C407.2225 199.3125 407.8825 199.3125 408.5625 199.3125 C408.376875 198.260625 408.19125 197.20875 408 196.125 C407.59807035 192.62247018 407.72709372 190.65412512 408.5625 187.3125 C408.90653308 184.98072025 409.24199202 182.64762959 409.5625 180.3125 C410.5525 179.9825 411.5425 179.6525 412.5625 179.3125 C412.871875 178.69375 413.18125 178.075 413.5 177.4375 C414.80187453 174.83375095 416.06485638 173.78170213 418.5625 172.3125 C419.8825 172.3125 421.2025 172.3125 422.5625 172.3125 C422.5625 171.6525 422.5625 170.9925 422.5625 170.3125 C424.1403125 170.0959375 424.1403125 170.0959375 425.75 169.875 C427.80152586 169.57231586 429.85316908 169.24621567 431.875 168.78515625 C439.90639269 167.37265841 448.54135662 168.02911706 456.5625 169.3125 C456.5625 166.6725 456.5625 164.0325 456.5625 161.3125 C457.2225 161.3125 457.8825 161.3125 458.5625 161.3125 C458.418125 160.343125 458.27375 159.37375 458.125 158.375 C457.93693223 157.02091207 457.74946604 155.66674049 457.5625 154.3125 C457.376875 153.013125 457.19125 151.71375 457 150.375 C456.2214113 143.39203262 456.48503495 136.32739056 456.5625 129.3125 C457.2225 129.3125 457.8825 129.3125 458.5625 129.3125 C458.418125 128.4875 458.27375 127.6625 458.125 126.8125 C456.93812197 119.42748116 456.48600397 112.55872346 456.625 105.0703125 C456.7596642 102.35113365 456.7596642 102.35113365 455.5625 100.3125 C453.01308627 100.00008629 450.55888487 99.79946579 448 99.6875 C447.28908203 99.64882813 446.57816406 99.61015625 445.84570312 99.5703125 C444.08507575 99.47578217 442.32382272 99.39304183 440.5625 99.3125 C440.5625 98.6525 440.5625 97.9925 440.5625 97.3125 C441.2225 97.3125 441.8825 97.3125 442.5625 97.3125 C442.5625 96.6525 442.5625 95.9925 442.5625 95.3125 C441.9025 95.3125 441.2425 95.3125 440.5625 95.3125 C439.96517181 92.54985711 439.5625 90.15217231 439.5625 87.3125 C438.9025 87.3125 438.2425 87.3125 437.5625 87.3125 C437.5625 86.6525 437.5625 85.9925 437.5625 85.3125 C436.840625 85.18875 436.11875 85.065 435.375 84.9375 C432.60528106 84.3220069 430.1654646 83.42805626 427.5625 82.3125 C427.5625 81.6525 427.5625 80.9925 427.5625 80.3125 C426.2425 80.3125 424.9225 80.3125 423.5625 80.3125 C423.59730469 80.97636719 423.63210938 81.64023437 423.66796875 82.32421875 C423.94754937 91.44387215 423.94754937 91.44387215 420.5625 95.3125 C417.58976827 97.39341221 415.14308495 97.82401214 411.5625 97.3125 C408.25 95.3125 408.25 95.3125 405.5625 93.3125 C405.8925 92.3225 406.2225 91.3325 406.5625 90.3125 C405.63615956 85.98957794 404.84350079 83.26900621 401.5625 80.3125 C401.54832031 81.03695312 401.53414062 81.76140625 401.51953125 82.5078125 C401.08111105 91.39470836 401.08111105 91.39470836 398.3125 94.875 C394.73975049 98.04175525 392.33151503 99.3125 387.5625 99.3125 C387.2325 98.3225 386.9025 97.3325 386.5625 96.3125 C385.5725 95.6525 384.5825 94.9925 383.5625 94.3125 C382.8671875 92.03515625 382.8671875 92.03515625 382.4375 89.375 C381.96265268 86.54674271 381.47245063 84.0423519 380.5625 81.3125 C377.00576383 81.23166509 373.99434765 81.42276172 370.5625 82.3125 C370.2325 81.9825 369.9025 81.6525 369.5625 81.3125 C366.50996596 81.21158598 363.4800254 81.17637511 360.42700195 81.18310547 C359.46330688 81.18135315 358.49961182 81.17960083 357.50671387 81.17779541 C354.2713853 81.17334818 351.03611054 81.17633857 347.80078125 81.1796875 C345.50693247 81.17901199 343.21308377 81.17803991 340.91923523 81.17678833 C336.05381606 81.17530498 331.1884151 81.17747424 326.32299805 81.18212891 C320.29205347 81.18763536 314.26115492 81.18458684 308.23021221 81.17867279 C284.00209052 81.15877729 259.78711632 81.28968299 235.56342316 81.76379013 C208.95761991 82.28092665 182.36885876 82.34609696 155.75860095 82.24549818 C151.72259196 82.23071094 147.68657753 82.21811174 143.65056092 82.20560896 C126.05723201 82.15100981 108.46397009 82.09326614 90.87084961 81.99023438 C81.55810777 81.93581002 72.24547826 81.89910559 62.93258947 81.88272786 C58.05434134 81.87340832 53.17651391 81.85507312 48.29841805 81.81441498 C43.76266405 81.77664177 39.22743288 81.76200233 34.69152832 81.76525497 C33.03505539 81.76228789 31.3785717 81.75076206 29.7222271 81.72993088 C19.9784932 81.28810727 19.9784932 81.28810727 11.11082458 84.64312744 C8.15597458 87.73833578 7.3376721 89.84499507 6.4375 94 C5.6796875 97.44921875 5.6796875 97.44921875 4.5625 100.3125 C0.37690182 102.78145579 -2.76736685 102.35030737 -7.4375 101.3125 C-8.4275 100.6525 -9.4175 99.9925 -10.4375 99.3125 C-10.03601501 95.4582441 -9.47254649 92.16367647 -8.00073242 88.57397461 C-3.02928186 75.61515609 -3.03522222 61.61973734 -3.52856445 47.9440918 C-3.62504527 45.24873517 -3.69450357 42.55369784 -3.75976562 39.85742188 C-4.03073128 30.08405928 -4.72877564 20.47396251 -6.02856445 10.78344727 C-6.68521545 5.20995046 -6.68521545 5.20995046 -6.4375 2.3125 C-4.02263057 -0.10236943 -3.31042211 0.0163075 0 0 Z " fill="#2C2C2C" transform="translate(445.4375,371.6875)"/>
<path d="M0 0 C2.15881192 -0.00218282 4.31710822 -0.02039418 6.47583008 -0.03930664 C20.53714745 -0.09572246 34.1806822 1.77761543 47.48168945 6.40405273 C50.06541331 7.25256632 52.6655462 7.9415241 55.2980957 8.62280273 C70.24005577 12.64883086 83.58164979 20.44579875 96.8605957 28.18530273 C96.8605957 28.84530273 96.8605957 29.50530273 96.8605957 30.18530273 C97.59536133 30.28327148 98.33012695 30.38124023 99.0871582 30.48217773 C102.24062556 31.28164833 103.74894753 32.35873338 106.2355957 34.43530273 C107.09668945 35.15202148 107.9577832 35.86874023 108.8449707 36.60717773 C109.84012695 37.45795898 110.8352832 38.30874023 111.8605957 39.18530273 C112.45291992 39.68739258 113.04524414 40.18948242 113.65551758 40.70678711 C133.37023131 57.43503448 133.37023131 57.43503448 138.8605957 66.18530273 C140.18666562 68.00312358 141.52080516 69.81507064 142.8605957 71.62280273 C150.8605957 82.57802661 150.8605957 82.57802661 150.8605957 86.18530273 C151.5205957 86.18530273 152.1805957 86.18530273 152.8605957 86.18530273 C154.03725574 88.43056219 155.2020031 90.68074415 156.3605957 92.93530273 C156.69446289 93.56952148 157.02833008 94.20374023 157.37231445 94.85717773 C159.13235103 98.30541267 159.8605957 100.23370342 159.8605957 104.18530273 C160.5205957 104.18530273 161.1805957 104.18530273 161.8605957 104.18530273 C163.01593327 107.03593982 164.15999082 109.89029087 165.2980957 112.74780273 C165.78632812 113.94759766 165.78632812 113.94759766 166.28442383 115.17163086 C168.15068441 119.88538182 169.21682962 124.12892638 169.8605957 129.18530273 C170.17681885 129.79857422 170.49304199 130.4118457 170.81884766 131.04370117 C179.31876492 148.51763467 177.78965085 180.49801937 174.8605957 199.18530273 C173.5405957 198.52530273 172.2205957 197.86530273 170.8605957 197.18530273 C170.84641602 196.20174805 170.83223633 195.21819336 170.81762695 194.20483398 C170.52685662 184.10211157 168.82336356 174.86682843 166.32543945 165.09545898 C164.27216064 157.02313204 162.65305909 148.85289523 161.00439453 140.68994141 C159.78473868 134.82433493 158.43611925 129.59247923 155.8605957 124.18530273 C155.33792696 122.65117318 154.83405718 121.11032543 154.3605957 119.56030273 C152.86275756 114.97365847 150.74388114 111.41050511 147.9230957 107.49780273 C146.19397185 104.72072503 145.11515034 102.40057158 143.9855957 99.37280273 C140.82174006 91.18111449 135.80786027 84.91688904 129.91918945 78.49389648 C127.84903282 76.17233563 125.94929754 73.77136769 124.0480957 71.31030273 C110.34396663 54.13375411 92.97723179 42.57745407 73.8605957 32.18530273 C72.89742432 31.65332275 72.89742432 31.65332275 71.91479492 31.1105957 C37.93187223 12.47183902 -6.05852876 10.56506928 -42.8894043 20.87280273 C-70.46687178 29.08462208 -93.50312579 43.22489184 -114.1394043 63.18530273 C-114.71311768 63.73420166 -115.28683105 64.28310059 -115.87792969 64.84863281 C-119.9762461 68.84156234 -123.55407751 73.02296083 -126.9519043 77.62280273 C-127.46325928 78.31237061 -127.97461426 79.00193848 -128.50146484 79.71240234 C-140.90388231 96.65833676 -149.40031637 114.19139365 -156.34594727 133.94848633 C-157.05926062 135.95937155 -157.7990617 137.95761653 -158.54956055 139.95483398 C-162.45797139 150.79559434 -164.27776494 161.84688584 -166.1394043 173.18530273 C-166.51745239 175.43414508 -166.89637967 177.68283978 -167.27612305 179.93139648 C-168.24387407 185.6805327 -169.19693084 191.43197203 -170.1394043 197.18530273 C-171.1294043 196.85530273 -172.1194043 196.52530273 -173.1394043 196.18530273 C-174.1830593 148.06799005 -174.1830593 148.06799005 -168.1394043 128.18530273 C-167.94185547 127.4838916 -167.74430664 126.78248047 -167.54077148 126.05981445 C-163.76550978 112.68339064 -157.99901166 99.11363064 -150.51831055 87.37280273 C-148.58401593 84.30423338 -146.90861876 81.10757949 -145.2175293 77.90014648 C-144.1394043 76.18530273 -144.1394043 76.18530273 -142.1394043 75.18530273 C-141.14923977 73.50202304 -140.16354748 71.81565833 -139.2175293 70.10717773 C-137.66254576 67.33525056 -136.01778324 64.75242063 -134.1394043 62.18530273 C-133.4794043 62.18530273 -132.8194043 62.18530273 -132.1394043 62.18530273 C-131.4794043 60.86530273 -130.8194043 59.54530273 -130.1394043 58.18530273 C-129.4794043 58.18530273 -128.8194043 58.18530273 -128.1394043 58.18530273 C-127.8712793 57.54592773 -127.6031543 56.90655273 -127.3269043 56.24780273 C-126.1394043 54.18530273 -126.1394043 54.18530273 -123.1394043 53.18530273 C-122.45401081 51.86149837 -121.78927922 50.52690059 -121.1394043 49.18530273 C-119.4831543 47.58764648 -119.4831543 47.58764648 -117.6394043 46.12280273 C-115.20275518 44.17658088 -113.91678308 42.85137092 -112.1394043 40.18530273 C-110.50875666 39.12758535 -108.83659556 38.13257228 -107.1394043 37.18530273 C-103.5995066 35.17304821 -103.5995066 35.17304821 -100.5144043 32.56030273 C-99.1394043 31.18530273 -99.1394043 31.18530273 -96.1394043 30.18530273 C-95.4794043 29.50467773 -94.8194043 28.82405273 -94.1394043 28.12280273 C-92.1394043 26.18530273 -92.1394043 26.18530273 -89.1394043 26.18530273 C-89.1394043 25.52530273 -89.1394043 24.86530273 -89.1394043 24.18530273 C-87.57821008 23.39106412 -86.01538466 22.6000315 -84.4519043 21.81030273 C-83.58178711 21.36944336 -82.71166992 20.92858398 -81.81518555 20.47436523 C-74.98788915 17.18530273 -74.98788915 17.18530273 -71.1394043 17.18530273 C-71.1394043 16.52530273 -71.1394043 15.86530273 -71.1394043 15.18530273 C-69.87100904 14.67914976 -68.59957328 14.18061174 -67.3269043 13.68530273 C-66.61920898 13.40686523 -65.91151367 13.12842773 -65.18237305 12.84155273 C-63.1394043 12.18530273 -63.1394043 12.18530273 -60.1394043 12.18530273 C-60.1394043 11.52530273 -60.1394043 10.86530273 -60.1394043 10.18530273 C-50.72938152 7.88917517 -50.72938152 7.88917517 -46.1394043 8.18530273 C-46.1394043 7.52530273 -46.1394043 6.86530273 -46.1394043 6.18530273 C-40.81434056 4.13146789 -35.93175831 3.80147812 -30.26635742 3.61889648 C-28.55307321 3.54032114 -26.84448099 3.37031722 -25.1394043 3.18530273 C-24.8094043 2.52530273 -24.4794043 1.86530273 -24.1394043 1.18530273 C-16.43800331 -0.64805032 -7.89033658 -0.00088985 0 0 Z " fill="#6D6D6D" transform="translate(261.139404296875,241.814697265625)"/>
<path d="M0 0 C1.875 0.25 1.875 0.25 4 1 C6.11475923 4.28962547 6.59217227 7.68797264 7.25 11.5 C15.35852603 54.49068879 39.42422834 92.58547657 75.43920898 117.55737305 C84.25167726 123.53569939 93.27960013 128.65747653 103 133 C103.61407715 133.27537598 104.2281543 133.55075195 104.86083984 133.83447266 C125.85998499 143.08748243 147.43601862 147.22667802 170.3125 147.3125 C171.55161133 147.31805908 172.79072266 147.32361816 174.06738281 147.3293457 C217.13056993 146.99425706 255.48961423 129.40470007 287 101 C287.86109375 100.23558594 288.7221875 99.47117187 289.609375 98.68359375 C302.2765453 86.78224911 312.26749959 71.49489932 320 56 C320.34756348 55.30616211 320.69512695 54.61232422 321.05322266 53.89746094 C326.52213474 42.77826336 330.14051655 31.44712004 333.32666016 19.49609375 C334.04718975 16.825066 334.78124333 14.15959983 335.54296875 11.5 C335.77395264 10.6853125 336.00493652 9.870625 336.24291992 9.03125 C337 7 337 7 339 5 C341.625 4.875 341.625 4.875 344 5 C343.54867611 19.23926881 340.9503018 32.99339235 335 46 C334.64292969 46.81984375 334.28585937 47.6396875 333.91796875 48.484375 C331.4054733 54.1647995 328.68982387 59.74535743 325.9375 65.3125 C325.60911133 65.9823291 325.28072266 66.6521582 324.94238281 67.34228516 C322.8941099 71.44599277 320.55938245 75.18569454 318 79 C317.67 79.99 317.34 80.98 317 82 C316.34 82 315.68 82 315 82 C314.7525 82.53625 314.505 83.0725 314.25 83.625 C310.78815177 90.20251163 306.3275995 94.87364183 301 100 C298.37432736 102.55328568 296.04728935 104.92906597 294 108 C293.34 108 292.68 108 292 108 C292 108.66 292 109.32 292 110 C291.34 110 290.68 110 290 110 C290 110.66 290 111.32 290 112 C288.5390625 113.5078125 288.5390625 113.5078125 286.625 115.125 C285.99851562 115.66382813 285.37203125 116.20265625 284.7265625 116.7578125 C283 118 283 118 281 118 C281 118.66 281 119.32 281 120 C280.34 120 279.68 120 279 120 C279 120.66 279 121.32 279 122 C278.01 122 277.02 122 276 122 C276 122.66 276 123.32 276 124 C275.401875 124.268125 274.80375 124.53625 274.1875 124.8125 C271.9953732 125.85839358 271.9953732 125.85839358 270.625 127.4375 C268.37732283 129.59872804 265.79201058 130.60399471 263 132 C260.65672529 133.56218314 258.34725827 135.16282703 256.05078125 136.79296875 C254 138 254 138 251 138 C250.67 138.66 250.34 139.32 250 140 C245.23939156 142.56571739 240.12729002 144.32578285 235 146 C233.35257649 146.68368076 231.70689147 147.3715584 230.0625 148.0625 C226.01752792 149.71202385 222.33521005 150.41641403 218 151 C217.01 151.515625 216.02 152.03125 215 152.5625 C211.43328623 154.27155035 208.91041143 154.07241503 205 154 C204.443125 154.3196875 203.88625 154.639375 203.3125 154.96875 C199.27518363 156.76917487 194.7417547 156.39891333 190.375 156.47851562 C185.42997965 156.65761972 182.46863505 157.75966005 178 160 C174.5625 160.14453125 174.5625 160.14453125 171 159.8125 C169.824375 159.71582031 168.64875 159.61914062 167.4375 159.51953125 C164.08733226 159.01319908 161.19079824 158.11194484 158 157 C155.33298505 156.52725153 152.69816424 156.27912044 150 156 C150 155.34 150 154.68 150 154 C149.175 154.04640625 148.35 154.0928125 147.5 154.140625 C135.03507905 154.53015378 123.84062782 151.93599931 112.37109375 147.00390625 C108.8528073 145.51428579 105.24704927 144.28527317 101.640625 143.02734375 C91.67288167 139.14936077 82.23450227 133.36889667 73 128 C73 127.34 73 126.68 73 126 C72.236875 125.71125 71.47375 125.4225 70.6875 125.125 C68 124 68 124 65 122 C65 121.34 65 120.68 65 120 C64.319375 119.814375 63.63875 119.62875 62.9375 119.4375 C58.79422141 117.40993814 56.13061459 114.33258972 53 111 C50.61369847 108.55688177 48.33964645 106.25920387 45.625 104.1875 C42.01059799 101.17549833 38.82782514 97.76500062 36 94 C36 93.34 36 92.68 36 92 C35.34 92 34.68 92 34 92 C32.60287726 90.04402816 31.28072371 88.0340906 30 86 C29.2575 84.9275 28.515 83.855 27.75 82.75 C26 80 26 80 26 78 C24.515 77.505 24.515 77.505 23 77 C11.16467592 59.62826382 3.19617929 36.1061916 -0.75 15.5625 C-0.87785889 14.89992188 -1.00571777 14.23734375 -1.13745117 13.5546875 C-1.83950732 9.65755947 -2.12229665 5.95629672 -2 2 C-1.34 2 -0.68 2 0 2 C0 1.34 0 0.68 0 0 Z " fill="#030303" transform="translate(91,437)"/>
<path d="M0 0 C0.99 0.33 1.98 0.66 3 1 C3.6875 4.3125 3.6875 4.3125 4 8 C2.49597949 10.14860073 1.32895015 10.83552492 -1 12 C-2.99824559 12.09857448 -4.99985256 12.13102198 -7.00052547 12.13422108 C-8.93178293 12.14090784 -8.93178293 12.14090784 -10.90205568 12.14772969 C-12.34436668 12.14764039 -13.78667767 12.14745052 -15.22898865 12.14717102 C-16.75062897 12.15046857 -18.27226842 12.15419391 -19.79390675 12.1583125 C-23.99077827 12.16835264 -28.18763548 12.17205251 -32.38451731 12.17470181 C-36.90469704 12.1785988 -41.42486537 12.18817741 -45.94503784 12.19691467 C-56.86755729 12.21669424 -67.79007769 12.2267463 -78.71261057 12.23564246 C-83.85110748 12.24002214 -88.98960335 12.2453897 -94.12809944 12.25063133 C-111.19996521 12.26764363 -128.27183033 12.28213973 -145.34370327 12.28938007 C-149.77576638 12.29129009 -154.20782949 12.2932104 -158.63989258 12.29516602 C-160.29232095 12.29589163 -160.29232095 12.29589163 -161.97813172 12.2966319 C-179.83978921 12.3049394 -197.70137989 12.33028844 -215.56300818 12.36274669 C-233.88397839 12.39576945 -252.20491459 12.41382442 -270.52591473 12.41702431 C-280.81953356 12.41919365 -291.11305491 12.42800414 -301.40664482 12.45348549 C-310.16952078 12.47512709 -318.93227558 12.48327524 -327.69517522 12.47351871 C-332.16946923 12.46895518 -336.64351292 12.47097855 -341.11777306 12.49028015 C-345.20927913 12.50777892 -349.30034982 12.50702357 -353.39185966 12.49138286 C-354.87637087 12.48898642 -356.36091119 12.49343456 -357.84537762 12.50521151 C-359.8547434 12.52017236 -361.86425635 12.50834954 -363.87363338 12.49498463 C-364.99234449 12.49596144 -366.1110556 12.49693824 -367.26366705 12.49794465 C-370 12 -370 12 -371.88289791 10.28156346 C-373 8 -373 8 -373 3 C-332.08 3.33 -291.16 3.66 -249 4 C-248.67 3.34 -248.34 2.68 -248 2 C-166.49 2 -84.98 2 -1 2 C-0.67 1.34 -0.34 0.68 0 0 Z " fill="#6B6B6B" transform="translate(828,388)"/>
<path d="M0 0 C1.27158034 -0.00322445 2.54316067 -0.00644889 3.85327375 -0.00977105 C5.2828061 -0.00829959 6.71233835 -0.00673184 8.1418705 -0.00507832 C9.64614819 -0.00694442 11.1504254 -0.00924431 12.65470183 -0.01194364 C16.80823058 -0.01809295 20.9617393 -0.01792439 25.11527157 -0.01674926 C29.58706731 -0.01654604 34.05885647 -0.02205649 38.53064919 -0.02680683 C47.29931179 -0.03513118 56.06796768 -0.03786248 64.83663391 -0.03841921 C71.96091892 -0.03889355 79.0852017 -0.04094416 86.20948601 -0.04411983 C106.38657986 -0.05293144 126.56366839 -0.05753845 146.74076419 -0.05678936 C147.829664 -0.0567494 148.91856381 -0.05670945 150.04046059 -0.05666828 C151.13068255 -0.0566274 152.2209045 -0.05658652 153.34416349 -0.0565444 C171.01833244 -0.05613783 188.69248009 -0.06570877 206.36664288 -0.07980665 C224.49321946 -0.09415185 242.61978564 -0.10107785 260.74636805 -0.10021287 C270.93153953 -0.09988025 281.1166887 -0.10265579 291.30185509 -0.11339092 C299.97323821 -0.12247159 308.6445889 -0.12469133 317.3159747 -0.1178815 C321.74360861 -0.11460386 326.17118021 -0.11460411 330.59880829 -0.12323475 C334.64768906 -0.1310462 338.69645756 -0.12972372 342.74533542 -0.12095062 C344.21439409 -0.11940372 345.68346091 -0.12127605 347.15250997 -0.12681069 C349.141096 -0.1338097 351.12971595 -0.12741705 353.11830139 -0.12025452 C354.22540352 -0.12047188 355.33250565 -0.12068925 356.47315633 -0.12091321 C359.18499184 0.12863445 359.18499184 0.12863445 362.18499184 2.12863445 C361.85499184 3.11863445 361.52499184 4.10863445 361.18499184 5.12863445 C360.11249184 5.10800945 359.03999184 5.08738445 357.93499184 5.06613445 C355.00428594 5.11497955 352.94540069 5.38544745 350.18499184 6.12863445 C349.85499184 5.79863445 349.52499184 5.46863445 349.18499184 5.12863445 C347.28757707 5.03098528 345.38646841 5.00492115 343.4865427 5.00558662 C342.24097943 5.00359558 340.99541616 5.00160453 339.71210855 4.99955314 C338.3119511 5.00240674 336.91179382 5.00535235 335.51163673 5.00837994 C334.03821976 5.00794436 332.56480286 5.00706972 331.09138638 5.00579077 C327.02327408 5.00354305 322.95518785 5.00757085 318.88707888 5.01256883 C314.5073691 5.0168692 310.1276609 5.0154272 305.7479496 5.01466656 C298.15340194 5.01414106 290.55886283 5.01729055 282.96431732 5.0229044 C271.98374774 5.0310159 261.00318233 5.03363426 250.02261008 5.03489239 C232.20930334 5.03708346 214.39600117 5.04374503 196.58269691 5.053195 C179.2741034 5.06236769 161.96551112 5.06944922 144.65691566 5.07370281 C143.05777362 5.0740969 143.05777362 5.0740969 141.42632567 5.07449894 C136.07828288 5.07580394 130.73024007 5.07706766 125.38219726 5.07831085 C80.98312562 5.08868518 36.58405896 5.10630498 -7.81500816 5.12863445 C-6.58877911 -0.30180849 -5.52989474 0.00351958 0 0 Z " fill="#010101" transform="translate(465.81500816345215,447.8713655471802)"/>
<path d="M0 0 C2.09375 0.171875 2.09375 0.171875 4.5 0.75 C5.2940625 0.93046875 6.088125 1.1109375 6.90625 1.296875 C9 2 9 2 11 4 C10.01 4 9.02 4 8 4 C6.68 4.33 5.36 4.66 4 5 C4 17.87 4 30.74 4 44 C5.32 44.66 6.64 45.32 8 46 C8 46.66 8 47.32 8 48 C8.82371094 48.32291016 8.82371094 48.32291016 9.6640625 48.65234375 C12.78597825 50.45344899 14.99307547 52.90766372 17.375 55.5625 C17.86323242 56.10624268 18.35146484 56.64998535 18.85449219 57.21020508 C34.38227861 74.76301761 40.19960635 96.79910277 39 120 C38.08816302 129.31101143 34.90677959 138.15762088 32 147 C31.34 147 30.68 147 30 147 C29.90847656 147.70511719 29.81695312 148.41023437 29.72265625 149.13671875 C27.4242222 158.24348719 19.71539656 165.79249058 13 172 C12.02353516 173.01707031 12.02353516 173.01707031 11.02734375 174.0546875 C9.05170405 175.95038802 7.17126954 177.25310777 4.8125 178.625 C1.83643402 180.26358005 1.83643402 180.26358005 0 183 C-1.99609375 184 -1.99609375 184 -4.4375 185 C-7.22906973 186.14709767 -8.84618666 186.84618666 -11 189 C-13.20748794 189.6241665 -15.44262402 190.15264565 -17.6875 190.625 C-18.88761719 190.88539063 -20.08773437 191.14578125 -21.32421875 191.4140625 C-24.95226551 191.99239089 -28.33338229 192.10355018 -32 192 C-32 192.99 -32 193.98 -32 195 C-39.26 195 -46.52 195 -54 195 C-54 194.01 -54 193.02 -54 192 C-54.70125 192.01160156 -55.4025 192.02320313 -56.125 192.03515625 C-72.17350746 192.18779151 -72.17350746 192.18779151 -78 188 C-76.5625 186.4375 -76.5625 186.4375 -74 185 C-70.28659187 184.9108782 -66.67424245 185.57637852 -63.08178711 186.48535156 C-42.24005749 191.64063176 -21.13649841 187.57848261 -2.75537109 177.06884766 C1.52993773 174.45951775 5.3092337 171.38205909 9 168 C9.94746094 167.15501953 9.94746094 167.15501953 10.9140625 166.29296875 C22.70750289 155.20090037 28.76124703 140.63455572 32 125 C32.185625 124.195625 32.37125 123.39125 32.5625 122.5625 C35.84144878 103.35722857 30.4558302 83.24534202 19.55078125 67.41796875 C12.86632447 57.98832538 12.86632447 57.98832538 4 51 C4 50.01 4 49.02 4 48 C3.195625 47.855625 2.39125 47.71125 1.5625 47.5625 C-1 47 -1 47 -2 46 C-2.10312037 44.62940407 -2.13848953 43.25360341 -2.14526367 41.87915039 C-2.15164352 41.00476822 -2.15802338 40.13038605 -2.16459656 39.22950745 C-2.16570938 38.27849655 -2.1668222 37.32748566 -2.16796875 36.34765625 C-2.17296135 34.89195473 -2.17296135 34.89195473 -2.17805481 33.40684509 C-2.1831283 31.3497668 -2.18546301 29.29268025 -2.18530273 27.2355957 C-2.18748826 24.07945256 -2.20563691 20.92365929 -2.22460938 17.76757812 C-2.22754333 15.7734387 -2.22952811 13.77929761 -2.23046875 11.78515625 C-2.23765427 10.83616959 -2.24483978 9.88718292 -2.25224304 8.90943909 C-2.24916641 8.03190475 -2.24608978 7.15437042 -2.24291992 6.25024414 C-2.24434494 5.4760463 -2.24576996 4.70184845 -2.24723816 3.90419006 C-2 2 -2 2 0 0 Z " fill="#020202" transform="translate(306,306)"/>
<path d="M0 0 C0.66 0 1.32 0 2 0 C14.65469506 21.17306584 14.05089281 44.89432413 8.44775391 68.30761719 C6.15092782 77.26082565 3.22831889 85.76019909 -1 94 C-1.52464844 95.04671875 -2.04929687 96.0934375 -2.58984375 97.171875 C-9.02675668 109.60781563 -17.2585499 120.02628531 -27 130 C-27.83015625 130.8559375 -28.6603125 131.711875 -29.515625 132.59375 C-44.82251427 147.43110278 -70.06030556 161.86140652 -91.8125 162.375 C-96.71913409 162.18572331 -101.25784801 161.24384314 -106 160 C-105.505 159.01 -105.505 159.01 -105 158 C-101.83984375 157.5859375 -101.83984375 157.5859375 -97.9375 157.375 C-96.00197266 157.26285156 -96.00197266 157.26285156 -94.02734375 157.1484375 C-93.02832031 157.09945312 -92.02929688 157.05046875 -91 157 C-91 156.34 -91 155.68 -91 155 C-88.22970414 154.49685437 -85.4588348 153.99736162 -82.6875 153.5 C-81.90181641 153.35691406 -81.11613281 153.21382812 -80.30664062 153.06640625 C-79.54931641 152.93105469 -78.79199219 152.79570313 -78.01171875 152.65625 C-77.31522217 152.53056641 -76.61872559 152.40488281 -75.90112305 152.27539062 C-74 152 -74 152 -71 152 C-71 151.34 -71 150.68 -71 150 C-69.73160474 149.49384702 -68.46016898 148.99530901 -67.1875 148.5 C-66.12595703 148.08234375 -66.12595703 148.08234375 -65.04296875 147.65625 C-63 147 -63 147 -60 147 C-60 146.34 -60 145.68 -60 145 C-59.360625 144.87625 -58.72125 144.7525 -58.0625 144.625 C-57.381875 144.41875 -56.70125 144.2125 -56 144 C-55.67 143.34 -55.34 142.68 -55 142 C-53.68 142 -52.36 142 -51 142 C-51 141.34 -51 140.68 -51 140 C-50.01 140 -49.02 140 -48 140 C-48 139.34 -48 138.68 -48 138 C-46.2421875 137.05598958 -44.484375 136.11197917 -42.7265625 135.16796875 C-40.69497635 133.95236507 -40.69497635 133.95236507 -39 131 C-38.38125 130.71125 -37.7625 130.4225 -37.125 130.125 C-34.31780205 128.63883638 -32.94892449 126.46863769 -31 124 C-30.34 124 -29.68 124 -29 124 C-29 123.34 -29 122.68 -29 122 C-27.125 119.875 -27.125 119.875 -25 118 C-24.34 118 -23.68 118 -23 118 C-22.71125 117.195625 -22.4225 116.39125 -22.125 115.5625 C-21 113 -21 113 -19 112 C-18.505 110.515 -18.505 110.515 -18 109 C-17.34 109 -16.68 109 -16 109 C-15.7525 108.319375 -15.505 107.63875 -15.25 106.9375 C-14.07328534 104.17222054 -12.65826837 101.67776546 -11.140625 99.08984375 C-9.27540882 95.67241 -7.7365476 92.11241477 -6.16015625 88.5546875 C-5 86 -5 86 -3.375 83.0625 C-1.60382536 79.11761103 -0.70467101 75.11033545 0.25390625 70.90234375 C1 68 1 68 1.9777832 65.66601562 C5.20432145 57.25096961 5.38700332 47.84961325 5.375 38.9375 C5.37556396 37.86129395 5.37612793 36.78508789 5.37670898 35.67626953 C5.25139848 26.4279433 3.75142338 17.88379801 1.45751953 8.95605469 C0.7639564 5.99083174 0.3765782 3.0205536 0 0 Z " fill="#6E6E6E" transform="translate(377,379)"/>
<path d="M0 0 C-0.21875 1.8203125 -0.21875 1.8203125 -1 4 C-2.96875 5.4921875 -2.96875 5.4921875 -5.5 6.875 C-15.09655795 12.31167661 -25.07937353 18.25691928 -31.6875 27.3125 C-32.120625 27.869375 -32.55375 28.42625 -33 29 C-33.66 29 -34.32 29 -35 29 C-35.66 30.65 -36.32 32.3 -37 34 C-37.99 34 -38.98 34 -40 34 C-40.28875 34.763125 -40.5775 35.52625 -40.875 36.3125 C-42 39 -42 39 -44 42 C-44.66 42 -45.32 42 -46 42 C-46.1134375 42.56847656 -46.226875 43.13695312 -46.34375 43.72265625 C-47.29856862 47.03610421 -49.08214662 49.73905322 -50.84375 52.68359375 C-52.06560769 55.13143702 -52.5820485 57.30706247 -53 60 C-53.66 60 -54.32 60 -55 60 C-55.0825 60.763125 -55.165 61.52625 -55.25 62.3125 C-56.0773054 66.38008491 -57.39671685 70.05276997 -58.8671875 73.92578125 C-59.42792969 75.44751953 -59.42792969 75.44751953 -60 77 C-60.38381836 77.91410645 -60.38381836 77.91410645 -60.77539062 78.84667969 C-63.53349211 85.97454436 -63.59793478 93.0523406 -63.75 100.625 C-63.78334404 101.97632091 -63.8167918 103.32763927 -63.8503418 104.67895508 C-64.38727367 122.48139421 -64.38727367 122.48139421 -59.98046875 139.56640625 C-59.0676466 141.83209629 -58.42786232 143.99990348 -57.875 146.375 C-56.51258634 152.01928516 -54.08590064 157.01028888 -51.5 162.1875 C-51.03787109 163.13012695 -51.03787109 163.13012695 -50.56640625 164.09179688 C-49.2420239 166.74908764 -48.11394936 168.88605064 -46 171 C-45.7525 171.721875 -45.505 172.44375 -45.25 173.1875 C-43.7801652 176.49462829 -41.80693281 178.64204913 -39.33984375 181.25390625 C-38 183 -38 183 -37.56640625 185.08984375 C-37.18922061 187.18174179 -37.18922061 187.18174179 -35.125 188.03515625 C-34.42375 188.35355469 -33.7225 188.67195312 -33 189 C-31.4375 190.62109375 -31.4375 190.62109375 -30 192.4375 C-27.8546863 195.06197006 -25.74288609 196.99558324 -23 199 C-23 199.66 -23 200.32 -23 201 C-21.68 201.66 -20.36 202.32 -19 203 C-19 203.66 -19 204.32 -19 205 C-17.68 205 -16.36 205 -15 205 C-15 205.66 -15 206.32 -15 207 C-14.46375 207.268125 -13.9275 207.53625 -13.375 207.8125 C-10.58333333 209.20833333 -7.79166667 210.60416667 -5 212 C-5 212.66 -5 213.32 -5 214 C-10.36053998 214.82469846 -13.1930835 213.02819264 -17.3828125 210.0234375 C-41.80059039 191.14521519 -58.223117 168.00731406 -66 138 C-66.3196875 136.78570312 -66.639375 135.57140625 -66.96875 134.3203125 C-73.8855644 103.51487059 -67.72430176 69.660763 -51 43 C-43.89316905 32.0916419 -36.05926393 22.31299026 -26 14 C-25.21496094 13.33871094 -24.42992187 12.67742187 -23.62109375 11.99609375 C-7.61722024 -1.20271899 -7.61722024 -1.20271899 0 0 Z " fill="#050505" transform="translate(207,309)"/>
<path d="M0 0 C1.65 0 3.3 0 5 0 C6.19657886 2.39315772 6.13092162 3.87602913 6.14044189 6.54820251 C6.14615204 7.50582993 6.15186218 8.46345734 6.15774536 9.45010376 C6.15886322 10.50418427 6.15998108 11.55826477 6.16113281 12.64428711 C6.16858017 14.30535744 6.16858017 14.30535744 6.17617798 15.99998474 C6.19082447 19.67577731 6.19760518 23.35152675 6.203125 27.02734375 C6.20887368 29.5732066 6.21463144 32.11906944 6.22039795 34.66493225 C6.22956916 39.3238899 6.23586709 43.98283452 6.2388947 48.64179891 C6.24337794 55.50328696 6.26093816 62.36457605 6.2898953 69.22600359 C6.31409345 75.16550067 6.32183785 81.10494801 6.32357025 87.04449654 C6.32660533 89.57354377 6.3346624 92.10258999 6.34775543 94.63160515 C6.3647367 98.16333129 6.3629551 101.6945684 6.35644531 105.22631836 C6.37026749 106.80440277 6.37026749 106.80440277 6.3843689 108.41436768 C6.37879974 109.37481491 6.37323059 110.33526215 6.36749268 111.32481384 C6.36895924 112.16012603 6.3704258 112.99543821 6.3719368 113.85606289 C5.9120529 116.50694917 5.04579894 117.31424765 3 119 C2.08782715 119.82516113 2.08782715 119.82516113 1.15722656 120.66699219 C-1.57804631 122.35719023 -3.31456446 122.3590789 -6.515625 122.328125 C-7.59521484 122.32369385 -8.67480469 122.3192627 -9.78710938 122.31469727 C-11.50124023 122.28267212 -11.50124023 122.28267212 -13.25 122.25 C-14.41337891 122.23831787 -15.57675781 122.22663574 -16.77539062 122.21459961 C-41.21813355 121.89093323 -41.21813355 121.89093323 -45 120 C-45 117.03 -45 114.06 -45 111 C-44.34 111.33 -43.68 111.66 -43 112 C-28.15 112 -13.3 112 2 112 C2 75.7 2 39.4 2 2 C1.34 2 0.68 2 0 2 C0 1.34 0 0.68 0 0 Z " fill="#6B6B6B" transform="translate(283,280)"/>
<path d="M0 0 C1.4540625 0.0309375 1.4540625 0.0309375 2.9375 0.0625 C2.6075 1.0525 2.2775 2.0425 1.9375 3.0625 C0.2875 3.0625 -1.3625 3.0625 -3.0625 3.0625 C-3.165625 3.660625 -3.26875 4.25875 -3.375 4.875 C-4.18344157 7.44731408 -4.96987506 8.38449458 -7.0625 10.0625 C-9.07870483 10.44002342 -9.07870483 10.44002342 -11.42724609 10.44345093 C-12.76477936 10.45614014 -12.76477936 10.45614014 -14.1293335 10.46908569 C-15.10501282 10.463013 -16.08069214 10.45694031 -17.0859375 10.45068359 C-18.11543518 10.45594055 -19.14493286 10.46119751 -20.20562744 10.46661377 C-23.61640493 10.4798422 -27.02671758 10.4710654 -30.4375 10.4609375 C-32.80257253 10.46295741 -35.16764445 10.46586815 -37.53271484 10.46963501 C-42.49257326 10.47406223 -47.45226975 10.46761437 -52.41210938 10.45361328 C-58.77803435 10.43652136 -65.14357992 10.4463604 -71.50949097 10.46433067 C-76.39415357 10.47515767 -81.27872583 10.47172712 -86.16339111 10.4639473 C-88.51100713 10.46194229 -90.85863127 10.46441503 -93.20623779 10.47138596 C-96.48406788 10.47898243 -99.76127868 10.46742105 -103.0390625 10.45068359 C-104.01474182 10.45675629 -104.99042114 10.46282898 -105.9956665 10.46908569 C-106.88735535 10.46062622 -107.77904419 10.45216675 -108.69775391 10.44345093 C-109.47277252 10.44231985 -110.24779114 10.44118877 -111.04629517 10.44002342 C-113.59633404 9.96254247 -114.52235042 9.11945036 -116.0625 7.0625 C-115.75 4.875 -115.75 4.875 -115.0625 3.0625 C-114.24628677 3.06472061 -113.43007355 3.06694122 -112.58912659 3.06922913 C-104.72626994 3.08964275 -96.86342691 3.10467635 -89.00055027 3.11431217 C-84.96251315 3.11943317 -80.92449868 3.1263221 -76.88647461 3.13793945 C-59.80162432 3.1856918 -42.73094252 3.12447777 -25.65234375 2.62109375 C-24.95648226 2.60156206 -24.26062077 2.58203037 -23.54367256 2.56190681 C-15.58142151 2.33211807 -7.3626611 0.15025839 0 0 Z " fill="#6A6A6A" transform="translate(987.0625,388.9375)"/>
<path d="M0 0 C5.64167969 -0.02470254 11.28332795 -0.04286121 16.92504883 -0.05493164 C18.84465076 -0.05996315 20.76424886 -0.06678898 22.68383789 -0.07543945 C25.44157864 -0.08755669 28.19926876 -0.09324011 30.95703125 -0.09765625 C31.81649857 -0.10281754 32.67596588 -0.10797882 33.56147766 -0.11329651 C34.36208115 -0.11337204 35.16268463 -0.11344757 35.98754883 -0.11352539 C36.6914827 -0.115746 37.39541656 -0.11796661 38.12068176 -0.12025452 C40 0 40 0 43 1 C43 2.32 43 3.64 43 5 C43.66 5 44.32 5 45 5 C44.67 5.66 44.34 6.32 44 7 C43.45206787 6.82581543 42.90413574 6.65163086 42.33959961 6.47216797 C39.5798677 5.9152107 37.36347611 6.1343951 34.56640625 6.4453125 C26.88436438 7.17582415 19.26997893 6.99039898 11.56445312 6.78515625 C10.50033203 6.77097656 9.43621094 6.75679688 8.33984375 6.7421875 C7.38456787 6.7201123 6.42929199 6.69803711 5.44506836 6.67529297 C2.95761332 6.80111506 2.95761332 6.80111506 1.21313477 8.35205078 C-1.97763846 12.68646803 -0.84785467 17.79996901 -0.19140625 22.77734375 C0.08123949 25.94337289 -0.49724401 28.8717405 -1 32 C-1.19029948 36.01038537 -1.22349907 39.83635832 -0.46435547 43.78881836 C-0.0044953 46.96891338 -0.10030518 49.50288225 -0.4375 52.6875 C-1.0141301 59.7179516 -1.08253865 66.69739884 -1.0625 73.75 C-1.05927734 74.89968262 -1.05605469 76.04936523 -1.05273438 77.23388672 C-1.03888781 80.82262011 -1.02027788 84.41129747 -1 88 C-0.97335794 92.77083107 -0.95342099 97.54162249 -0.9375 102.3125 C-0.92920166 103.39692383 -0.92090332 104.48134766 -0.91235352 105.59863281 C-0.89636147 110.51482236 -0.94412453 115.16957757 -2 120 C-2.99 119.67 -3.98 119.34 -5 119 C-5.07007653 104.33574952 -5.12298149 89.67152119 -5.15543652 75.0071373 C-5.1709064 68.1982234 -5.19199811 61.38941353 -5.22631836 54.58056641 C-5.25940964 48.01240519 -5.27684241 41.44432383 -5.28463173 34.87607574 C-5.29018433 32.36738634 -5.30102688 29.85870299 -5.31719017 27.35005951 C-5.33889654 23.84229126 -5.34196971 20.33497279 -5.34057617 16.82714844 C-5.351362 15.78489609 -5.36214783 14.74264374 -5.3732605 13.66880798 C-5.36913651 12.71250992 -5.36501251 11.75621185 -5.36076355 10.77093506 C-5.36352893 9.94132137 -5.36629431 9.11170769 -5.36914349 8.25695419 C-4.91076408 5.45440892 -3.9328411 4.05269201 -2 2 C-1.34 2 -0.68 2 0 2 C0 1.34 0 0.68 0 0 Z " fill="#040404" transform="translate(240,277)"/>
<path d="M0 0 C1.65 0.33 3.3 0.66 5 1 C9.30351439 12.884876 9.4040106 25.80069451 9.375 38.3125 C9.37617828 39.40395325 9.37617828 39.40395325 9.37738037 40.51745605 C9.35718749 56.28079185 8.61692024 73.1227518 3 88 C5.64 88.33 8.28 88.66 11 89 C10.8125 90.875 10.8125 90.875 10 93 C5.90124729 95.53158256 2.57915568 95.01759015 -2 94 C-2.99 93.34 -3.98 92.68 -5 92 C-4.59847657 88.14537508 -4.03462175 84.8496731 -2.56347656 81.25927734 C2.82115634 67.22108829 2.30614799 52.14555954 1.75 37.375 C1.6950932 35.50134605 1.64170185 33.62764706 1.58984375 31.75390625 C1.35814801 24.09870955 1.01541955 16.59523485 0 9 C-0.05915294 7.3342531 -0.08854052 5.66659344 -0.0625 4 C-0.05347656 3.236875 -0.04445313 2.47375 -0.03515625 1.6875 C-0.02355469 1.130625 -0.01195312 0.57375 0 0 Z " fill="#010101" transform="translate(440,379)"/>
<path d="M0 0 C0.92776245 -0.00938095 1.8555249 -0.0187619 2.81140137 -0.02842712 C3.80627563 -0.01719315 4.8011499 -0.00595917 5.82617188 0.00561523 C7.36827332 0.00343239 7.36827332 0.00343239 8.94152832 0.00120544 C11.11355424 0.00286428 13.28559193 0.01442378 15.45751953 0.03515625 C18.7827343 0.06410289 22.10635415 0.05576591 25.43164062 0.04272461 C27.54232546 0.04896231 29.65300526 0.05735349 31.76367188 0.06811523 C32.75854614 0.0651796 33.75342041 0.06224396 34.77844238 0.05921936 C35.70620483 0.07190353 36.63396729 0.08458771 37.58984375 0.09765625 C38.40384644 0.10305923 39.21784912 0.10846222 40.05651855 0.11402893 C42.84979849 0.59781079 44.24435794 1.57007271 46.29492188 3.50170898 C46.74902344 6.04541016 46.74902344 6.04541016 46.68554688 9.04467773 C46.67265625 10.11782227 46.65976562 11.1909668 46.64648438 12.29663086 C46.61296875 13.41618164 46.57945312 14.53573242 46.54492188 15.68920898 C46.526875 16.82036133 46.50882813 17.95151367 46.49023438 19.11694336 C46.44304839 21.91271274 46.37722783 24.7067887 46.29492188 27.50170898 C44.29492188 23.50170898 44.29492188 23.50170898 44.29492188 5.50170898 C28.12492188 5.50170898 11.95492187 5.50170898 -4.70507812 5.50170898 C-5.63389139 11.58543358 -5.63389139 11.58543358 -5.27368164 17.25097656 C-4.38436813 25.65292363 -4.5818347 34.07515328 -4.60742188 42.51342773 C-4.60929044 44.33616598 -4.61071227 46.15890474 -4.61170959 47.98164368 C-4.61550028 52.74414493 -4.62530053 57.50661496 -4.63641357 62.269104 C-4.64670242 67.14285866 -4.65122312 72.01661844 -4.65625 76.89038086 C-4.66692639 86.42750384 -4.68396064 95.9646038 -4.70507812 105.50170898 C-6.19007813 105.99670898 -6.19007813 105.99670898 -7.70507812 106.50170898 C-9.87651389 104.33027322 -8.87339424 99.19899342 -8.88208008 96.18017578 C-8.88865128 95.2013443 -8.89522247 94.22251282 -8.9019928 93.21401978 C-8.92177917 89.95965509 -8.93340009 86.70533664 -8.94335938 83.45092773 C-8.9474349 82.34254862 -8.95151043 81.2341695 -8.95570946 80.09220314 C-8.97659274 74.22618418 -8.9908848 68.36018876 -9.00024414 62.49414062 C-9.0113148 56.42416746 -9.04571612 50.35456027 -9.08541584 44.28471661 C-9.11151853 39.62735801 -9.11993032 34.97008744 -9.12352562 30.31266212 C-9.12840782 28.07470032 -9.14006789 25.83674286 -9.15856361 23.59885216 C-9.18282035 20.46941235 -9.18201453 17.34093012 -9.17504883 14.21142578 C-9.18785889 13.28295334 -9.20066895 12.3544809 -9.21386719 11.39787292 C-9.16331794 5.18181785 -9.16331794 5.18181785 -6.96977234 1.9262085 C-4.39264486 0.30518751 -3.02483788 0.00061748 0 0 Z " fill="#050505" transform="translate(924.705078125,465.498291015625)"/>
<path d="M0 0 C-1.2938797 3.58015255 -2.83747852 6.34270408 -5.125 9.375 C-16.75524997 25.70580933 -24.47809764 44.31874199 -24.1875 64.5625 C-24.18105469 65.50689941 -24.17460937 66.45129883 -24.16796875 67.42431641 C-24.07589145 75.968802 -23.63278138 84.48005064 -23 93 C-24.32 92.67 -25.64 92.34 -27 92 C-29.636528 82.48289989 -30.54803608 73.54705647 -30.5 63.6875 C-30.49735641 62.66694016 -30.49735641 62.66694016 -30.49465942 61.62576294 C-30.43275474 50.89672088 -29.50836537 41.81568158 -25 32 C-24.48050781 30.78828125 -23.96101562 29.5765625 -23.42578125 28.328125 C-20.19148369 21.1235475 -9.26733756 0 0 0 Z " fill="#6D6D6D" transform="translate(211,354)"/>
<path d="M0 0 C0.99 0 1.98 0 3 0 C2.99777939 0.66541306 2.99555878 1.33082611 2.99327087 2.0164032 C2.97114426 8.94314029 2.95606252 15.86986734 2.94506836 22.79663086 C2.94004019 25.38159595 2.93321681 27.96655819 2.92456055 30.55151367 C2.91242871 34.2674225 2.9067565 37.98329372 2.90234375 41.69921875 C2.89718246 42.85459641 2.89202118 44.00997406 2.88670349 45.20036316 C2.88662796 46.28110611 2.88655243 47.36184906 2.88647461 48.4753418 C2.884254 49.42354294 2.88203339 50.37174408 2.87974548 51.34867859 C2.99992635 53.99837626 3.43441594 56.41314208 4 59 C4.16263734 61.69786649 4.09032235 64.29032946 4 67 C3.505 67.495 3.505 67.495 3 68 C2.85326064 71.88859301 2.9909975 75.25227643 4 79 C3.505 79.495 3.505 79.495 3 80 C2.94913519 81.89254755 2.96456794 83.7869505 3.0078125 85.6796875 C3.02457031 86.83597656 3.04132812 87.99226562 3.05859375 89.18359375 C3.10272685 91.63687466 3.15476104 94.09002664 3.21484375 96.54296875 C3.22902344 97.70183594 3.24320313 98.86070312 3.2578125 100.0546875 C3.29092529 101.65546143 3.29092529 101.65546143 3.32470703 103.28857422 C3 106 3 106 1.48388672 107.87158203 C0.9942041 108.24395996 0.50452148 108.61633789 0 109 C-2.3964943 106.6035057 -2.25073343 106.09591297 -2.25396729 102.83143616 C-2.25960693 101.95795029 -2.26524658 101.08446442 -2.27105713 100.18450928 C-2.26700867 99.22393616 -2.26296021 98.26336304 -2.25878906 97.27368164 C-2.2622937 96.26383713 -2.26579834 95.25399261 -2.26940918 94.21354675 C-2.27823974 90.86234745 -2.27237218 87.51135784 -2.265625 84.16015625 C-2.26697137 81.83849548 -2.26891167 79.51683498 -2.27142334 77.19517517 C-2.27437649 72.3235303 -2.2700712 67.45195865 -2.26074219 62.58032227 C-2.24935393 56.32766158 -2.25590203 50.0751727 -2.26788712 43.82251835 C-2.27510595 39.02622681 -2.27281756 34.22997615 -2.26763153 29.4336834 C-2.26629477 27.12793393 -2.26794366 24.82218079 -2.27259064 22.51643562 C-2.27765548 19.29609438 -2.26994574 16.07603322 -2.25878906 12.85571289 C-2.26283752 11.897164 -2.26688599 10.93861511 -2.27105713 9.95101929 C-2.26541748 9.07471359 -2.25977783 8.1984079 -2.25396729 7.29554749 C-2.25321323 6.53397874 -2.25245918 5.77240999 -2.25168228 4.9877634 C-2 3 -2 3 0 0 Z " fill="#010101" transform="translate(985,463)"/>
<path d="M0 0 C0.66 0.66 1.32 1.32 2 2 C3.89915132 2.29956869 3.89915132 2.29956869 6.1035862 2.24609566 C6.967967 2.25007775 7.83234781 2.25405985 8.72292197 2.25816262 C9.67816051 2.25233693 10.63339906 2.24651125 11.61758423 2.24050903 C12.62793051 2.24221788 13.63827679 2.24392673 14.67923963 2.24568737 C18.08652342 2.24899848 21.49361306 2.23795192 24.90087891 2.22705078 C27.33464046 2.22648702 29.76840235 2.22680254 32.2021637 2.22793579 C37.45307947 2.22839217 42.70395082 2.22269583 47.95485306 2.21146011 C55.54682912 2.19522558 63.13878112 2.18999921 70.73077266 2.18748413 C83.04741673 2.1831038 95.36403436 2.16978556 107.68066406 2.15087891 C119.64713407 2.13252883 131.6135969 2.11836806 143.58007812 2.10986328 C144.31734059 2.10933783 145.05460305 2.10881239 145.81420679 2.10827102 C149.51273108 2.105661 153.21125542 2.10313357 156.90977979 2.10064721 C187.6065388 2.0799042 218.30326573 2.04452113 249 2 C249 2.33 249 2.66 249 3 C214.04278593 3.79977993 179.10291167 4.07321685 144.13711548 3.96601343 C140.11272154 3.95401262 136.08832372 3.94388826 132.06392479 3.93372619 C114.45352145 3.88888904 96.84317328 3.83736437 79.23291016 3.75317383 C69.91394973 3.70872729 60.59505805 3.67846371 51.27600098 3.66431636 C45.44516834 3.65472759 39.61475926 3.62801069 33.78405857 3.58822405 C30.19465235 3.56797254 26.60537765 3.56448008 23.01592064 3.56586266 C21.35742788 3.56316737 19.69892972 3.55360911 18.04052162 3.53663635 C15.77716832 3.51446557 13.51512424 3.51704882 11.25170898 3.52571106 C9.98826157 3.52072507 8.72481415 3.51573908 7.42308044 3.510602 C3.3840143 4.08806751 1.24813591 5.60458742 -2 8 C-2.66 8 -3.32 8 -4 8 C-3.6875 6.0625 -3.6875 6.0625 -3 4 C-2.01 3.67 -1.02 3.34 0 3 C0 2.01 0 1.02 0 0 Z " fill="#171717" transform="translate(457,450)"/>
<path d="M0 0 C0.66 0 1.32 0 2 0 C3.08061413 3.52007326 3.13942403 6.7943342 3.16113281 10.46508789 C3.17074036 11.77647232 3.1803479 13.08785675 3.19024658 14.4389801 C3.19509308 15.86687038 3.19937227 17.29476268 3.203125 18.72265625 C3.20887924 20.18948874 3.21463694 21.65632122 3.22039795 23.12315369 C3.23088746 26.19384104 3.23674438 29.26450234 3.24023438 32.33520508 C3.24573299 36.2719073 3.2697983 40.20826607 3.29820633 44.14486027 C3.31681165 47.17228716 3.32203704 50.19963067 3.32357025 53.22710991 C3.3265991 54.67880582 3.33463548 56.13050019 3.34775543 57.58213997 C3.36477953 59.60945945 3.36109616 61.63692102 3.35644531 63.66430664 C3.36009094 64.8180629 3.36373657 65.97181915 3.36749268 67.16053772 C3 70 3 70 1.62835693 71.8891449 C-0.72496471 73.49456648 -2.28219173 73.12671334 -5.0625 72.75 C-5.94035156 72.64171875 -6.81820312 72.5334375 -7.72265625 72.421875 C-10 72 -10 72 -12 71 C-11.67 70.01 -11.34 69.02 -11 68 C-7.78548731 66.39274365 -4.56387464 66.94251815 -1 67 C-1.00222061 66.17536758 -1.00444122 65.35073517 -1.00672913 64.50111389 C-1.02673052 56.74601743 -1.04197335 48.99093339 -1.05181217 41.23581791 C-1.05704036 37.248428 -1.06413684 33.26105933 -1.07543945 29.27368164 C-1.08627061 25.42874886 -1.09227732 21.58383655 -1.09487724 17.73888969 C-1.09673108 16.26881017 -1.10035091 14.79873182 -1.10573006 13.32866096 C-1.11294355 11.27645533 -1.11399081 9.22433533 -1.11352539 7.17211914 C-1.115746 6.00185684 -1.11796661 4.83159454 -1.12025452 3.62586975 C-1 1 -1 1 0 0 Z " fill="#020202" transform="translate(1002,388)"/>
<path d="M0 0 C1.32 0.66 2.64 1.32 4 2 C4.0493933 8.06891692 4.08571643 14.13771713 4.10986328 20.20678711 C4.11992835 22.271912 4.13358154 24.33702263 4.15087891 26.40209961 C4.17510493 29.36836264 4.18647797 32.33443744 4.1953125 35.30078125 C4.20563507 36.2258699 4.21595764 37.15095856 4.22659302 38.1040802 C4.22674408 38.96474594 4.22689514 39.82541168 4.22705078 40.7121582 C4.231492 41.46938675 4.23593323 42.2266153 4.24050903 43.00679016 C4 45 4 45 2 48 C0.68 47.67 -0.64 47.34 -2 47 C-2 43.7 -2 40.4 -2 37 C-1.34 37 -0.68 37 0 37 C-0.144375 36.030625 -0.28875 35.06125 -0.4375 34.0625 C-0.62556777 32.70841207 -0.81303396 31.35424049 -1 30 C-1.185625 28.700625 -1.37125 27.40125 -1.5625 26.0625 C-2.3410887 19.07953262 -2.07746505 12.01489056 -2 5 C-1.34 5 -0.68 5 0 5 C0 3.35 0 1.7 0 0 Z " fill="#595959" transform="translate(904,496)"/>
<path d="M0 0 C4.65214365 0.10338097 7.8917995 0.64559967 11.875 3.25 C14.5785932 7.31565661 16.875 11.30535505 16.875 16.25 C20.505 16.25 24.135 16.25 27.875 16.25 C28.535 17.57 29.195 18.89 29.875 20.25 C24.595 20.25 19.315 20.25 13.875 20.25 C13.875 19.59 13.875 18.93 13.875 18.25 C14.535 18.25 15.195 18.25 15.875 18.25 C15.875 17.59 15.875 16.93 15.875 16.25 C15.215 16.25 14.555 16.25 13.875 16.25 C13.27767181 13.48735711 12.875 11.08967231 12.875 8.25 C12.215 8.25 11.555 8.25 10.875 8.25 C10.875 7.59 10.875 6.93 10.875 6.25 C10.153125 6.12625 9.43125 6.0025 8.6875 5.875 C5.91778106 5.2595069 3.4779646 4.36555626 0.875 3.25 C0.875 2.59 0.875 1.93 0.875 1.25 C-0.445 1.25 -1.765 1.25 -3.125 1.25 C-3.07279297 2.24580078 -3.07279297 2.24580078 -3.01953125 3.26171875 C-2.73995063 12.38137215 -2.73995063 12.38137215 -6.125 16.25 C-9.09773173 18.33091221 -11.54441505 18.76151214 -15.125 18.25 C-18.4375 16.25 -18.4375 16.25 -21.125 14.25 C-20.795 13.26 -20.465 12.27 -20.125 11.25 C-20.125 10.26 -20.125 9.27 -20.125 8.25 C-19.073125 9.24 -19.073125 9.24 -18 10.25 C-14.64701252 12.58251303 -13.12300164 12.85839155 -9.125 12.25 C-7.14921261 11.35938785 -7.14921261 11.35938785 -6.125 9.25 C-5.62742541 6.58556831 -5.38661492 3.95335417 -5.125 1.25 C-3.5835058 -0.2914942 -2.14056186 0.04353685 0 0 Z " fill="#080808" transform="translate(872.125,450.75)"/>
<path d="M0 0 C-0.33 0.99 -0.66 1.98 -1 3 C-2.16015625 3.07476563 -3.3203125 3.14953125 -4.515625 3.2265625 C-19.83580085 4.42943376 -30.14614364 9.08172906 -41 20 C-40.77673258 14.52994825 -39.5568411 11.6255384 -35.796875 7.6328125 C-26.16229741 -1.12208627 -12.38614193 -5.35616948 0 0 Z " fill="#696969" transform="translate(967,541)"/>
<path d="M0 0 C1.24136719 0.00580078 1.24136719 0.00580078 2.5078125 0.01171875 C3.31992187 0.00785156 4.13203125 0.00398437 4.96875 0 C9.02860824 0.00661215 12.79729064 0.12243876 16.7578125 1.13671875 C15.7578125 4.13671875 15.7578125 4.13671875 13.7578125 5.13671875 C12.27144903 5.32104874 10.77890693 5.45703151 9.28515625 5.56640625 C8.38474609 5.63988281 7.48433594 5.71335937 6.55664062 5.7890625 C4.6768635 5.93533867 2.79665033 6.07613445 0.91601562 6.2109375 C-6.90023582 6.86459992 -13.8393492 8.65158583 -20.8046875 12.32421875 C-22.50625 13.22140625 -22.50625 13.22140625 -24.2421875 14.13671875 C-24.5721875 13.47671875 -24.9021875 12.81671875 -25.2421875 12.13671875 C-23.50266339 8.56611663 -21.70313263 6.12938413 -18.2421875 4.13671875 C-16.9221875 4.13671875 -15.6021875 4.13671875 -14.2421875 4.13671875 C-14.2421875 3.47671875 -14.2421875 2.81671875 -14.2421875 2.13671875 C-12.540625 1.92015625 -12.540625 1.92015625 -10.8046875 1.69921875 C-0.04341955 0.00007118 -0.04341955 0.00007118 0 0 Z " fill="#6A6A6A" transform="translate(882.2421875,539.86328125)"/>
<path d="M0 0 C1.32 0.66 2.64 1.32 4 2 C4.02467609 7.51757479 4.04284856 13.03511761 4.05493164 18.55273438 C4.05996763 20.43066975 4.06679671 22.3086012 4.07543945 24.18652344 C4.08753713 26.88217132 4.09323557 29.57776747 4.09765625 32.2734375 C4.10281754 33.11619232 4.10797882 33.95894714 4.11329651 34.82723999 C4.11387171 40.77225659 4.11387171 40.77225659 3 43 C1.68 42.67 0.36 42.34 -1 42 C-0.96744792 40.01432292 -0.93489583 38.02864583 -0.90234375 36.04296875 C-0.91736783 33.79694539 -0.91736783 33.79694539 -2 31 C-1.505 29.515 -1.505 29.515 -1 28 C-1.144375 27.175 -1.28875 26.35 -1.4375 25.5 C-2.21163275 20.68317402 -2.28211385 15.87061265 -2 11 C-1.67 10.67 -1.34 10.34 -1 10 C-0.76712992 8.31816052 -0.58735834 6.6287584 -0.4375 4.9375 C-0.35371094 4.01839844 -0.26992188 3.09929687 -0.18359375 2.15234375 C-0.12300781 1.44207031 -0.06242188 0.73179687 0 0 Z " fill="#636363" transform="translate(971,497)"/>
<path d="M0 0 C3.1744176 1.09462676 3.98914157 1.98177335 5.75 4.9375 C7 8 7 8 7 11 C8.14557121 10.97787697 8.14557121 10.97787697 9.31428528 10.95530701 C19.14678346 10.76779935 28.97949787 10.5963102 38.8125 10.4375 C39.99412594 10.4184001 39.99412594 10.4184001 41.19962311 10.39891434 C70.15750255 9.93721599 99.04826961 10.12705366 128 11 C128 11.33 128 11.66 128 12 C112.12772773 12.04667626 96.25547392 12.08196733 80.3831501 12.10362434 C73.01371087 12.11394638 65.64431424 12.12802435 58.27490234 12.15087891 C51.85333379 12.17078448 45.43179607 12.18370969 39.01019752 12.18817699 C35.6085471 12.19078919 32.20698491 12.19694809 28.8053627 12.21146011 C25.01227749 12.22588979 21.21937759 12.22798152 17.42626953 12.22705078 C15.72587021 12.23783661 15.72587021 12.23783661 13.99111938 12.24884033 C12.4472052 12.24471634 12.4472052 12.24471634 10.87210083 12.24050903 C9.97427446 12.24235262 9.0764481 12.24419621 8.15141487 12.24609566 C4.99065743 11.8845435 3.98558576 9.98431392 1.875 7.6875 C-0.1750037 4.74916136 -0.39859599 3.48771488 0 0 Z " fill="#444444" transform="translate(451,380)"/>
<path d="M0 0 C4.875 0.875 4.875 0.875 6 2 C6.21881525 6.52414326 6.18579066 11.05361765 6.18530273 15.58251953 C6.18748427 17.85858997 6.20562229 20.13417199 6.22460938 22.41015625 C6.22754423 23.85416501 6.22952841 25.29817607 6.23046875 26.7421875 C6.23457764 28.0607373 6.23868652 29.37928711 6.24291992 30.73779297 C6 34 6 34 4 37 C3.01 37 2.02 37 1 37 C1.33 25.12 1.66 13.24 2 1 C1.34 0.67 0.68 0.34 0 0 Z " fill="#717171" transform="translate(214,308)"/>
<path d="M0 0 C0.33 0 0.66 0 1 0 C1.433125 1.36125 1.433125 1.36125 1.875 2.75 C2.76531776 5.32202908 3.71494413 7.61346766 5 10 C10.01535052 9.67039784 10.01535052 9.67039784 14 7 C16.125 7.375 16.125 7.375 18 8 C12.89270386 14.71244635 12.89270386 14.71244635 8 16 C7.01 16 6.02 16 5 16 C4.67 15.01 4.34 14.02 4 13 C3.01 12.34 2.02 11.68 1 11 C0.234375 8.65234375 0.234375 8.65234375 -0.25 5.9375 C-0.42015625 5.03902344 -0.5903125 4.14054687 -0.765625 3.21484375 C-0.84296875 2.48394531 -0.9203125 1.75304687 -1 1 C-0.67 0.67 -0.34 0.34 0 0 Z " fill="#010101" transform="translate(828,455)"/>
<path d="M0 0 C0.99 0 1.98 0 3 0 C3 0.66 3 1.32 3 2 C3.66 2 4.32 2 5 2 C3.68 10.58 2.36 19.16 1 28 C0.67 28 0.34 28 0 28 C0 18.76 0 9.52 0 0 Z " fill="#5D5D5D" transform="translate(90,411)"/>
<path d="M0 0 C0.99 0.33 1.98 0.66 3 1 C3.22223194 3.74086056 3.34781139 5.43963721 1.875 7.8125 C-0.84476654 9.53501881 -2.84586249 9.32855599 -6 9 C-6.99 8.34 -7.98 7.68 -9 7 C-9.1875 4.375 -9.1875 4.375 -9 2 C-2.25 1.875 -2.25 1.875 0 3 C0 2.01 0 1.02 0 0 Z " fill="#656565" transform="translate(853,388)"/>
<path d="M0 0 C8.58 0 17.16 0 26 0 C25 2 25 2 22.87109375 3.140625 C19.38386255 4.18442209 16.68485144 4.04891282 13.0625 3.75 C11.28552734 3.61851562 11.28552734 3.61851562 9.47265625 3.484375 C6.10065556 3.0140397 3.18334791 2.18585785 0 1 C0 0.67 0 0.34 0 0 Z " fill="#1F1F1F" transform="translate(249,593)"/>
<path d="M0 0 C0.66 0.33 1.32 0.66 2 1 C0.56839732 2.00842453 -0.87051453 3.00647891 -2.3125 4 C-3.11300781 4.556875 -3.91351563 5.11375 -4.73828125 5.6875 C-7 7 -7 7 -10 7 C-10.33 7.66 -10.66 8.32 -11 9 C-15.7436459 11.55657548 -20.8648617 13.40240142 -26 15 C-27.051875 15.391875 -28.10375 15.78375 -29.1875 16.1875 C-32 17 -32 17 -35 16 C-34.33057373 15.72849121 -33.66114746 15.45698242 -32.97143555 15.17724609 C-29.87402314 13.91651308 -26.78078868 12.64581548 -23.6875 11.375 C-22.63498047 10.94832031 -21.58246094 10.52164063 -20.49804688 10.08203125 C-14.11361056 7.44967904 -8.10941969 4.53098556 -2.15551758 1.02587891 C-1.08853638 0.51806885 -1.08853638 0.51806885 0 0 Z " fill="#202020" transform="translate(352,568)"/>
<path d="M0 0 C1.37478516 0.01740234 1.37478516 0.01740234 2.77734375 0.03515625 C3.69644531 0.04417969 4.61554688 0.05320312 5.5625 0.0625 C6.27277344 0.07410156 6.98304688 0.08570313 7.71484375 0.09765625 C8.04484375 1.74765625 8.37484375 3.39765625 8.71484375 5.09765625 C4.42484375 5.09765625 0.13484375 5.09765625 -4.28515625 5.09765625 C-3.0432556 0.13005366 -3.0432556 0.13005366 0 0 Z " fill="#6D6D6D" transform="translate(444.28515625,372.90234375)"/>
<path d="M0 0 C0.99 0.33 1.98 0.66 3 1 C2.01 1.33 1.02 1.66 0 2 C-0.70041186 3.31592 -1.36298366 4.65224913 -2 6 C-3.55639648 7.81518555 -3.55639648 7.81518555 -5.37109375 9.63671875 C-6.02787109 10.29607422 -6.68464844 10.95542969 -7.36132812 11.63476562 C-8.04646484 12.31216797 -8.73160156 12.98957031 -9.4375 13.6875 C-10.11876953 14.37650391 -10.80003906 15.06550781 -11.50195312 15.77539062 C-12.16001953 16.43087891 -12.81808594 17.08636719 -13.49609375 17.76171875 C-14.09607178 18.35944092 -14.6960498 18.95716309 -15.31420898 19.57299805 C-17 21 -17 21 -20 22 C-19.34 20.68 -18.68 19.36 -18 18 C-17.34 18 -16.68 18 -16 18 C-15.731875 17.360625 -15.46375 16.72125 -15.1875 16.0625 C-14 14 -14 14 -11 13 C-10.31460651 11.67619564 -9.64987492 10.34159786 -9 9 C-7.34375 7.40234375 -7.34375 7.40234375 -5.5 5.9375 C-3.06335088 3.99127814 -1.77737879 2.66606818 0 0 Z " fill="#545454" transform="translate(149,282)"/>
<path d="M0 0 C3.375 -0.1875 3.375 -0.1875 7 0 C9 3 9 3 9 6 C5.37 6 1.74 6 -2 6 C-1.34 4.02 -0.68 2.04 0 0 Z " fill="#646464" transform="translate(996,381)"/>
<path d="M0 0 C3.1744176 1.09462676 3.98914157 1.98177335 5.75 4.9375 C7 8 7 8 7 11 C10.63 11 14.26 11 18 11 C18 11.33 18 11.66 18 12 C16.04196493 12.05389087 14.08351091 12.09274217 12.125 12.125 C11.03445313 12.14820313 9.94390625 12.17140625 8.8203125 12.1953125 C5.04520576 11.93387852 4.38269585 10.41646313 1.875 7.6875 C-0.1750037 4.74916136 -0.39859599 3.48771488 0 0 Z " fill="#464646" transform="translate(451,380)"/>
<path d="M0 0 C2.00720923 0.28674418 4.0085944 0.61866701 6 1 C6.33 2.65 6.66 4.3 7 6 C6.01 6.66 5.02 7.32 4 8 C3.87625 7.360625 3.7525 6.72125 3.625 6.0625 C3.41875 5.381875 3.2125 4.70125 3 4 C2.34 3.67 1.68 3.34 1 3 C0.67 4.32 0.34 5.64 0 7 C-0.66 6.67 -1.32 6.34 -2 6 C-1.125 1.125 -1.125 1.125 0 0 Z " fill="#080808" transform="translate(846,449)"/>
<path d="M0 0 C-0.763125 0.556875 -1.52625 1.11375 -2.3125 1.6875 C-4.96431181 3.96929156 -6.31955095 5.97519171 -8 9 C-8.33 9 -8.66 9 -9 9 C-9.3125 5.6875 -9.3125 5.6875 -9 2 C-5.92176528 -0.73620864 -3.875152 -1.57876563 0 0 Z " fill="#6D6D6D" transform="translate(838,376)"/>
<path d="M0 0 C0.99 0.33 1.98 0.66 3 1 C2.21625 1.9075 1.4325 2.815 0.625 3.75 C-1.30052496 6.05190236 -2.82205741 8.21577207 -4 11 C-4.66 11 -5.32 11 -6 11 C-5.75579333 6.76708435 -5.598306 4.62979579 -2.625 1.5 C-1.75875 1.005 -0.8925 0.51 0 0 Z " fill="#707070" transform="translate(860,374)"/>
<path d="M0 0 C3.98847279 2.18792122 7.02980051 4.73176248 10.25 7.9375 C11.12140625 8.79214844 11.9928125 9.64679688 12.890625 10.52734375 C14.86944317 12.84695838 15.64177129 14.03083511 16 17 C15.360625 16.360625 14.72125 15.72125 14.0625 15.0625 C13.61390625 14.61519531 13.1653125 14.16789062 12.703125 13.70703125 C11.37520569 12.37606625 10.0535437 11.03885731 8.734375 9.69921875 C7.93515625 8.89097656 7.1359375 8.08273437 6.3125 7.25 C5.54550781 6.47140625 4.77851563 5.6928125 3.98828125 4.890625 C2.1389301 2.94769385 2.1389301 2.94769385 0 2 C0 1.34 0 0.68 0 0 Z " fill="#4C4C4C" transform="translate(381,289)"/>
<path d="M0 0 C1.32 0.33 2.64 0.66 4 1 C-1.10729614 7.71244635 -1.10729614 7.71244635 -6 9 C-6.99 9 -7.98 9 -9 9 C-9.33 7.68 -9.66 6.36 -10 5 C-7.36 5 -4.72 5 -2 5 C-0.58614089 2.61837991 -0.58614089 2.61837991 0 0 Z " fill="#0E0E0E" transform="translate(842,462)"/>
<path d="M0 0 C0.33 1.32 0.66 2.64 1 4 C-1.97 6.475 -1.97 6.475 -5 9 C-3.84826645 6.53199953 -2.95216435 4.95216435 -1 3 C-1.598125 3.309375 -2.19625 3.61875 -2.8125 3.9375 C-5 5 -5 5 -8 6 C-8 5.34 -8 4.68 -8 4 C-7.34 4 -6.68 4 -6 4 C-5.67 3.01 -5.34 2.02 -5 1 C-3.35 0.67 -1.7 0.34 0 0 Z " fill="#3E3E3E" transform="translate(863,372)"/>
<path d="M0 0 C-5.37330889 3.39366878 -9.86946489 3.32712342 -16 3 C-13.51635743 0.51635743 -11.98639569 0.41725183 -8.5625 -0.1875 C-7.59441406 -0.36667969 -6.62632812 -0.54585937 -5.62890625 -0.73046875 C-3 -1 -3 -1 0 0 Z " fill="#1E1E1E" transform="translate(309,588)"/>
<path d="M0 0 C0.99 0.33 1.98 0.66 3 1 C1.73113036 2.12721436 0.45982438 3.25168658 -0.8125 4.375 C-1.52019531 5.00148438 -2.22789062 5.62796875 -2.95703125 6.2734375 C-5 8 -5 8 -8 10 C-8 7 -8 7 -6.35546875 5.140625 C-5.64003906 4.51671875 -4.92460938 3.8928125 -4.1875 3.25 C-3.47980469 2.61578125 -2.77210938 1.9815625 -2.04296875 1.328125 C-1.36878906 0.88984375 -0.69460938 0.4515625 0 0 Z " fill="#474747" transform="translate(937,544)"/>
<path d="M0 0 C0.33 0 0.66 0 1 0 C2.42500059 3.99000166 3.40075776 7.80530429 4 12 C3.01 11.67 2.02 11.34 1 11 C0.63890458 9.35567294 0.28629924 7.7094792 -0.0625 6.0625 C-0.25972656 5.14597656 -0.45695313 4.22945313 -0.66015625 3.28515625 C-0.77230469 2.53105469 -0.88445313 1.77695312 -1 1 C-0.67 0.67 -0.34 0.34 0 0 Z " fill="#080808" transform="translate(828,455)"/>
<path d="M0 0 C1.9375 0.625 1.9375 0.625 4 2 C4.75 5.125 4.75 5.125 5 8 C3.68 7.67 2.36 7.34 1 7 C0.67 4.69 0.34 2.38 0 0 Z " fill="#636363" transform="translate(451,380)"/>
<path d="M0 0 C0.33 0.66 0.66 1.32 1 2 C-3.32734391 4.22923777 -6.28400182 3.92470553 -11 3 C-8.09907498 1.06604999 -7.10325263 0.69868059 -3.8125 0.375 C-2.554375 0.25125 -1.29625 0.1275 0 0 Z " fill="#141414" transform="translate(449,470)"/>
<path d="M0 0 C-0.33 0.99 -0.66 1.98 -1 3 C-2.65 3 -4.3 3 -6 3 C-6.33 3.99 -6.66 4.98 -7 6 C-7.33 5.01 -7.66 4.02 -8 3 C-5.53387212 -0.1151089 -3.89156016 -0.31553191 0 0 Z " fill="#696969" transform="translate(990,389)"/>
<path d="M0 0 C2 1 2 1 4 3 C2.35 4.65 0.7 6.3 -1 8 C-1.04241723 5.66705225 -1.04092937 3.33297433 -1 1 C-0.67 0.67 -0.34 0.34 0 0 Z " fill="#424242" transform="translate(856,551)"/>
<path d="M0 0 C0.33 0.66 0.66 1.32 1 2 C0.34 1.67 -0.32 1.34 -1 1 C-0.67 0.67 -0.34 0.34 0 0 Z " fill="#0C0C0C" transform="translate(898,495)"/>
<path d="M0 0 C0.33 0.66 0.66 1.32 1 2 C0.34 1.67 -0.32 1.34 -1 1 C-0.67 0.67 -0.34 0.34 0 0 Z " fill="#0E0E0E" transform="translate(898,487)"/>
<path d="" fill="#353535" transform="translate(0,0)"/>
<path d="" fill="#161616" transform="translate(0,0)"/>
<path d="" fill="#141414" transform="translate(0,0)"/>
<path d="" fill="#131313" transform="translate(0,0)"/>
<path d="" fill="#000000" transform="translate(0,0)"/>
<path d="" fill="#161616" transform="translate(0,0)"/>
<path d="" fill="#858585" transform="translate(0,0)"/>
<path d="" fill="#6D6D6D" transform="translate(0,0)"/>
<path d="" fill="#969696" transform="translate(0,0)"/>
<path d="" fill="#808080" transform="translate(0,0)"/>
<path d="" fill="#363636" transform="translate(0,0)"/>
<path d="" fill="#3A3A3A" transform="translate(0,0)"/>
<path d="" fill="#3A3A3A" transform="translate(0,0)"/>
<path d="" fill="#3A3A3A" transform="translate(0,0)"/>
<path d="" fill="#3A3A3A" transform="translate(0,0)"/>
<path d="" fill="#393939" transform="translate(0,0)"/>
<path d="" fill="#393939" transform="translate(0,0)"/>
<path d="" fill="#393939" transform="translate(0,0)"/>
<path d="" fill="#3B3B3B" transform="translate(0,0)"/>
<path d="" fill="#3B3B3B" transform="translate(0,0)"/>
<path d="" fill="#3A3A3A" transform="translate(0,0)"/>
<path d="" fill="#3B3B3B" transform="translate(0,0)"/>
<path d="" fill="#3A3A3A" transform="translate(0,0)"/>
<path d="" fill="#3B3B3B" transform="translate(0,0)"/>
<path d="" fill="#3A3A3A" transform="translate(0,0)"/>
<path d="" fill="#3B3B3B" transform="translate(0,0)"/>
<path d="" fill="#3A3A3A" transform="translate(0,0)"/>
<path d="" fill="#3A3A3A" transform="translate(0,0)"/>
<path d="" fill="#3A3A3A" transform="translate(0,0)"/>
<path d="" fill="#393939" transform="translate(0,0)"/>
<path d="" fill="#8E8E8E" transform="translate(0,0)"/>
<path d="" fill="#8A8A8A" transform="translate(0,0)"/>
<path d="" fill="#181818" transform="translate(0,0)"/>
<path d="" fill="#191919" transform="translate(0,0)"/>
<path d="" fill="#0D0D0D" transform="translate(0,0)"/>
</svg>
