<svg width="32" height="32" viewBox="0 0 32 32" fill="none" xmlns="http://www.w3.org/2000/svg">
  <!-- White version for dark backgrounds -->
  <rect width="32" height="32" fill="transparent"/>
  <path d="M16 4C9.373 4 4 9.373 4 16s5.373 12 12 12 12-5.373 12-12S22.627 4 16 4zm0 2c5.514 0 10 4.486 10 10s-4.486 10-10 10S6 21.514 6 16 10.486 6 16 6z" fill="white"/>
  <path d="M16 9c-.552 0-1 .448-1 1v6c0 .552.448 1 1 1h4c.552 0 1-.448 1-1s-.448-1-1-1h-3v-5c0-.552-.448-1-1-1z" fill="white"/>
  <circle cx="16" cy="10" r="1" fill="white"/>
</svg>